<svg width="483" height="190" viewBox="0 0 483 190" fill="none" xmlns="http://www.w3.org/2000/svg">
<path d="M0.60631 132.157C4.03698 121.555 19.6316 122.177 21.1903 130.753C14.641 126.856 8.71564 127.324 7.62364 132.472C6.99831 135.123 9.80631 138.397 14.9516 138.397C25.245 138.552 34.757 121.087 45.5183 101.28C62.2036 71.028 68.285 66.0373 83.569 68.22C76.2383 69.9387 69.065 76.4866 60.021 98.3187C64.3876 97.54 67.817 98.1613 70.625 99.7227C76.7063 98.476 82.009 94.264 85.9076 87.8707C94.6396 73.524 85.4396 57.9293 64.8543 61.3587C52.3783 63.544 40.8383 72.5893 34.1343 82.5693C27.4276 92.5493 26.3356 104.401 31.1716 107.363C20.7223 119.372 8.71564 100.501 24.777 81.1653C35.5383 68.22 54.5623 56.6827 72.1836 56.5253C94.7956 56.5253 107.428 72.432 97.9156 89.2747C93.393 97.072 83.569 101.905 75.4596 104.088C77.9543 107.363 79.201 111.417 79.669 114.383C81.229 125.299 76.8623 138.708 82.009 138.708C86.6863 138.708 96.6676 123.113 103.842 108.299C104.465 107.831 105.401 108.143 105.401 109.077C95.2636 129.507 86.6863 149 74.9916 149C66.5703 149 62.9836 138.708 68.285 123.269C70.469 117.033 70.781 110.013 68.285 105.337C63.7623 105.648 59.8636 104.556 57.9943 103.152L57.369 104.713C46.297 133.251 32.2623 150.093 17.1356 150.093C2.47698 150.093 -1.73369 139.176 0.60631 132.157Z" fill="#08A039"/>
<path d="M119.762 119.526C124.595 106.738 122.88 101.437 120.54 101.437C117.267 101.437 113.212 106.27 108.222 118.122C103.855 128.728 104.323 136.058 108.378 136.058C111.34 136.058 115.239 131.221 119.762 119.526ZM96.5255 119.216C102.919 106.27 111.964 98.9435 120.698 98.4755C127.09 98.3182 130.52 102.684 128.962 111.261C132.86 112.042 136.447 110.95 138.787 108.3C139.566 107.832 140.659 108.142 140.346 109.078C137.383 112.821 132.706 115.004 128.183 114.693C127.558 117.033 126.623 119.684 125.375 122.492C119.604 135.28 109.314 144.009 99.9562 143.388C91.5348 142.762 90.5988 131.221 96.5255 119.216Z" fill="#08A039"/>
<path d="M142.064 100.501H152.512L150.017 106.116C153.916 101.595 157.502 98.6293 162.18 98.6293C166.236 98.6293 167.638 101.28 167.014 105.648C170.914 101.28 174.656 98.6293 179.646 98.6293C186.04 98.6293 185.885 104.088 182.453 112.196L174.968 129.353C173.877 132.004 173.721 134.655 175.281 134.655C178.086 134.655 186.976 123.113 193.993 108.299C194.773 107.831 195.709 108.143 195.553 109.077C185.572 129.507 175.904 143.699 168.732 143.699C163.741 143.699 161.712 138.865 163.429 133.719C165.3 127.635 170.446 117.033 171.849 113.447C172.941 110.325 173.097 107.207 170.601 107.207C168.106 107.207 166.078 110.171 163.116 117.187L152.044 142.763H141.596L154.384 113.289C155.788 109.545 155.476 107.207 153.136 107.207C150.64 107.207 148.77 109.235 146.118 115.319L134.11 142.763H123.662L142.064 100.501Z" fill="#08A039"/>
<path d="M199.926 88.1812C199.926 84.2838 203.046 81.1652 206.944 81.1652C210.842 81.1652 213.962 84.2838 213.962 88.1812C213.962 92.0812 210.842 95.1998 206.944 95.1998C203.046 95.1998 199.926 92.0812 199.926 88.1812ZM185.267 125.92L197.743 100.501H208.347L196.339 126.856C194.624 131.068 192.13 134.654 194.78 134.654C198.523 134.654 208.036 123.113 215.054 108.298C215.832 107.832 216.768 108.142 216.612 109.078C206.632 129.506 195.871 143.698 188.699 143.698C180.59 143.698 180.59 134.965 185.267 125.92Z" fill="#08A039"/>
<path d="M218.329 100.501H228.777L225.658 107.52C230.028 102.373 234.549 98.6293 238.914 98.6293C244.841 98.6293 246.088 104.556 241.722 114.225L235.172 129.353C233.925 132.004 233.768 134.655 235.482 134.655C238.29 134.655 247.024 123.113 254.197 108.299C254.821 107.831 255.757 108.143 255.757 109.077C245.62 129.507 235.95 143.699 228.934 143.699C223.944 143.699 221.916 138.865 223.476 133.719C225.348 127.635 229.56 119.059 230.96 115.472C233.457 109.703 232.364 107.207 230.181 107.207C227.53 107.207 223.788 112.821 220.826 118.591L210.376 142.763H199.928L218.329 100.501Z" fill="#08A039"/>
<path d="M268.863 118.437C272.76 111.261 276.504 102.53 272.292 102.53C268.08 102.53 263.248 110.171 257.632 120.462C252.02 130.599 252.175 134.811 255.296 134.811C258.415 134.811 263.404 128.417 268.863 118.437ZM245.316 120.93C251.863 109.235 261.065 98.7859 270.577 98.7859C273.539 98.7859 276.036 100.034 275.879 104.402L277.751 100.501H288.356L276.504 126.857C274.632 131.067 272.292 134.654 274.943 134.654C278.529 134.654 288.041 123.113 295.217 108.299C295.84 107.831 296.775 108.142 296.775 109.078C286.795 129.507 275.879 143.698 268.705 143.698C263.404 143.698 261.065 137.462 263.091 130.754C258.415 137.93 253.735 143.387 248.277 143.387C239.857 143.387 238.764 132.782 245.316 120.93Z" fill="#08A039"/>
<path d="M183.959 10.8016C173.319 12.3389 164.86 20.4149 155.759 43.4883C183.445 37.2083 196.776 9.13626 183.959 10.8016ZM129.993 75.0203C127.944 75.9203 125.892 76.5616 123.713 77.1989C107.691 81.5576 107.947 69.7643 119.483 68.2269C121.663 67.9709 124.227 68.3576 127.173 69.1269C131.275 65.2789 134.865 58.3576 141.531 47.3336C116.151 43.4883 127.173 12.2123 145.504 23.8776C134.608 24.2603 129.225 41.5669 143.325 44.2576L144.351 42.5923C159.603 18.1083 171.524 8.49493 185.881 7.08427C205.621 5.03626 200.621 40.9256 154.477 47.0776C149.861 58.6123 143.58 66.8163 135.377 72.0723C150.888 78.4816 170.755 89.6336 181.267 82.1989C171.653 109.631 144.351 84.3789 129.993 75.0203Z" fill="#E73252"/>
<path d="M189.734 56.1782C192.94 50.2822 196.016 43.1049 192.556 43.1049C189.093 43.1049 185.121 49.3849 180.505 57.8435C175.89 66.1782 176.018 69.6369 178.582 69.6369C181.146 69.6369 185.248 64.3822 189.734 56.1782ZM170.378 58.2302C175.764 48.6155 183.325 40.0289 191.145 40.0289C193.58 40.0289 195.63 41.0542 195.502 44.6435L197.041 41.4369H205.757L196.016 63.0995C194.477 66.5609 192.556 69.5089 194.733 69.5089C197.681 69.5089 205.5 60.0235 211.397 47.8475C211.909 47.4635 212.68 47.7195 212.68 48.4889C204.476 65.2782 195.502 76.9435 189.606 76.9435C185.248 76.9435 183.325 71.8169 184.992 66.3062C181.146 72.2022 177.301 76.6889 172.816 76.6889C165.893 76.6889 164.996 67.9715 170.378 58.2302Z" fill="#E73252"/>
<path d="M201.274 67.5854C201.529 64.3814 203.581 60.9228 205.761 61.1788C202.043 65.5374 204.35 69.8961 207.938 70.0228C211.527 70.1508 212.554 67.3308 212.554 64.8961C212.681 61.0508 210.631 52.2054 211.401 47.8468C211.913 44.6441 214.219 42.2054 216.913 41.4361H224.989C216.398 47.0774 221.785 56.4374 220.885 65.0228C220.757 66.8161 220.373 68.3574 219.859 69.6374C225.502 65.4094 229.858 57.9748 234.73 47.8468C235.243 47.4641 236.013 47.7188 236.013 48.4881C227.678 65.2788 219.989 76.9441 209.478 76.9441H208.837C203.966 76.9441 201.017 72.5854 201.274 67.5854Z" fill="#E73252"/>
<path d="M251.14 39.3882C258.575 39.1296 258.444 46.3095 254.727 50.2815C248.319 57.0749 243.064 51.6922 246.654 47.4642C254.599 48.8709 256.01 41.0536 250.371 41.9509C238.96 43.6162 229.478 68.6135 241.399 68.6135C248.062 68.6135 254.344 62.7162 261.779 47.8469C262.42 47.5922 262.931 47.8469 263.062 48.4882C254.216 67.7162 244.088 76.9442 235.243 76.9442C216.53 76.9442 229.86 40.0295 251.14 39.3882Z" fill="#E73252"/>
<path d="M273.83 56.1782C277.037 50.2822 280.113 43.1049 276.651 43.1049C273.189 43.1049 269.217 49.3849 264.602 57.8435C259.989 66.1782 260.115 69.6369 262.678 69.6369C265.243 69.6369 269.343 64.3822 273.83 56.1782ZM254.474 58.2302C259.861 48.6155 267.423 40.0289 275.241 40.0289C277.675 40.0289 279.726 41.0542 279.599 44.6435L281.137 41.4369H289.854L280.113 63.0995C278.575 66.5609 276.651 69.5089 278.83 69.5089C281.778 69.5089 289.595 60.0235 295.493 47.8475C296.006 47.4635 296.775 47.7195 296.775 48.4889C288.571 65.2782 279.599 76.9435 273.702 76.9435C269.343 76.9435 267.423 71.8169 269.089 66.3062C265.243 72.2022 261.398 76.6889 256.913 76.6889C249.989 76.6889 249.091 67.9715 254.474 58.2302Z" fill="#E73252"/>
<path d="M43.231 181.68H43.2804V165.843H44.879V184.288H42.9364L36.099 168.499H36.0497V184.288H34.451V165.843H36.4444L43.231 181.68Z" fill="#08A039"/>
<path d="M55.6886 165.842H57.2873V179.222C57.2873 181.827 57.8779 183.303 60.6579 183.303C63.5339 183.303 64.1739 181.559 64.1739 179.075V165.842H65.7726V178.679C65.7726 182.273 64.6913 184.73 60.7073 184.73C57.1646 184.73 55.6886 182.789 55.6886 179.419V165.842Z" fill="#08A039"/>
<path d="M75.4515 167.269V165.842H85.4102V167.269H81.2302V184.288H79.6315V167.269H75.4515Z" fill="#08A039"/>
<path d="M96.4153 174.18H99.2193C99.7593 174.18 102.466 173.984 102.466 170.688C102.466 167.983 101.235 167.269 98.7273 167.269H96.4153V174.18ZM96.4153 175.607V184.288H94.8167V165.843H98.3833C101.753 165.843 104.065 166.827 104.065 170.564C104.065 172.36 103.302 174.475 101.358 174.893V174.943C103.498 175.483 103.793 177.132 103.817 179.441C103.866 180.328 103.743 183.575 104.653 184.065V184.288H102.907C102.219 182.74 102.267 179.592 102.17 178.237C101.998 175.78 100.154 175.607 98.0633 175.607H96.4153Z" fill="#08A039"/>
<path d="M114.896 165.842H116.496V184.288H114.896V165.842Z" fill="#08A039"/>
<path d="M137.898 178.041C137.971 181.189 136.373 184.729 132.685 184.729C127.349 184.729 127.349 178.46 127.349 174.549C127.349 170.76 127.841 165.4 132.734 165.4C136.054 165.4 137.726 168.032 137.751 171.156H136.153C136.005 168.966 135.169 166.826 132.685 166.826C128.799 166.826 128.947 172.432 128.947 174.92C128.947 177.746 128.799 183.302 132.857 183.302C135.611 183.302 136.226 180.302 136.299 178.041H137.898Z" fill="#08A039"/>
<path d="M148.807 165.842H150.407V184.288H148.807V165.842Z" fill="#08A039"/>
<path d="M170.384 175.09C170.384 172.383 170.408 166.827 166.473 166.827C162.76 166.827 162.734 172.263 162.734 174.919C162.734 177.747 162.588 183.303 166.645 183.303C170.53 183.303 170.384 177.698 170.384 175.09ZM161.136 174.55C161.136 170.76 161.652 165.4 166.546 165.4C171.957 165.4 171.982 171.451 171.982 175.459C171.982 179.468 171.686 184.73 166.498 184.73C161.161 184.73 161.136 178.46 161.136 174.55Z" fill="#08A039"/>
<path d="M191.177 181.68H191.227V165.843H192.825V184.288H190.883L184.045 168.499H183.996V184.288H182.397V165.843H184.391L191.177 181.68Z" fill="#08A039"/>
<path d="M203.783 165.842H205.381V184.288H203.783V165.842Z" fill="#08A039"/>
<path d="M221.3 174.229C224.007 175.361 226.022 176.196 226.022 179.54C226.022 182.714 223.958 184.73 220.736 184.73C217.366 184.73 215.595 182.344 215.668 179.076H217.243C217.218 181.385 218.176 183.304 220.711 183.304C222.95 183.304 224.426 181.876 224.426 179.592C224.426 176.81 222.41 176.369 220.292 175.532C217.808 174.55 216.039 173.444 216.039 170.492C216.039 167.492 217.834 165.401 220.835 165.401C223.712 165.401 225.607 167.393 225.531 170.296H223.983C224.082 168.254 222.874 166.828 220.81 166.828C218.719 166.828 217.638 168.374 217.638 170.394C217.638 172.213 218.227 172.926 219.875 173.64L221.3 174.229Z" fill="#08A039"/>
<path d="M234.864 167.269V165.842H244.825V167.269H240.643V184.288H239.045V167.269H234.864Z" fill="#08A039"/>
<path d="M259.936 177.181L257.501 167.861H257.452L255.017 177.181H259.936ZM258.411 165.842L263.352 184.289H261.729L260.28 178.607H254.671L253.172 184.289H251.621L256.565 165.842H258.411Z" fill="#08A039"/>
<mask id="mask0_8_197" style="mask-type:luminance" maskUnits="userSpaceOnUse" x="322" y="0" width="162" height="190">
<path d="M322 189.715H483.009V0H322V189.715Z" fill="white"/>
<path d="M416.718 0C416.718 0 410.958 11.1645 421.998 18.6076C421.998 18.6076 395.118 41.8283 429.678 53.4774C429.678 53.4774 417.198 83.849 460.878 83.0944C460.878 83.0944 463.758 94.8908 477.678 94.1969H483.009V0H416.718Z" fill="black"/>
</mask>
<g mask="url(#mask0_8_197)">
<path d="M570.605 81.7172C570.605 148.647 516.347 202.904 449.418 202.904C382.489 202.904 328.233 148.647 328.233 81.7172C328.233 14.7879 382.489 -39.4695 449.418 -39.4695C516.347 -39.4695 570.605 14.7879 570.605 81.7172Z" fill="#08A039"/>
<path d="M561.36 81.7172C561.36 143.541 511.243 193.659 449.419 193.659C387.595 193.659 337.477 143.541 337.477 81.7172C337.477 19.8932 387.595 -30.2242 449.419 -30.2242C511.243 -30.2242 561.36 19.8932 561.36 81.7172Z" fill="white"/>
<path d="M544.72 81.7172C544.72 134.351 502.052 177.019 449.419 177.019C396.785 177.019 354.117 134.351 354.117 81.7172C354.117 29.0839 396.785 -13.5841 449.419 -13.5841C502.052 -13.5841 544.72 29.0839 544.72 81.7172Z" fill="#E73252"/>
<path d="M469.027 144.582C468.916 144.18 468.735 143.825 468.523 143.496C468.484 143.392 468.465 143.289 468.416 143.18C467.916 142.082 467.117 141.474 465.955 141.228C465.216 141.069 464.565 141.269 463.96 141.592C462.193 141.832 461.305 142.869 460.393 144.037C458.892 145.01 457.567 146.338 457.245 147.989C457.168 148.39 457.544 148.677 457.884 148.742C460.233 149.196 463.245 148.721 465.512 148.028C466.824 147.628 469.545 146.457 469.027 144.582Z" fill="#133442"/>
<path d="M455.697 125.261C455.586 124.858 455.405 124.503 455.193 124.174C455.154 124.07 455.135 123.967 455.086 123.858C454.586 122.761 453.787 122.153 452.625 121.906C451.886 121.747 451.235 121.947 450.63 122.27C448.863 122.51 447.975 123.547 447.063 124.715C445.562 125.689 444.237 127.017 443.915 128.667C443.838 129.069 444.214 129.355 444.554 129.421C446.903 129.874 449.915 129.399 452.182 128.706C453.494 128.306 456.215 127.135 455.697 125.261Z" fill="#133442"/>
<path d="M437.269 113.011C437.159 112.609 436.977 112.254 436.765 111.925C436.727 111.821 436.708 111.718 436.659 111.609C436.159 110.511 435.36 109.903 434.197 109.657C433.459 109.498 432.808 109.698 432.203 110.021C430.436 110.261 429.548 111.298 428.636 112.466C427.135 113.439 425.809 114.767 425.488 116.418C425.411 116.819 425.787 117.106 426.127 117.171C428.476 117.625 431.488 117.15 433.755 116.457C435.067 116.057 437.788 114.886 437.269 113.011Z" fill="#133442"/>
<path d="M423.277 98.7681C423.166 98.3654 422.985 98.0108 422.773 97.6814C422.734 97.5774 422.716 97.4748 422.666 97.3654C422.166 96.2681 421.368 95.6601 420.204 95.4134C419.466 95.2548 418.816 95.4548 418.21 95.7774C416.444 96.0174 415.556 97.0548 414.644 98.2228C413.142 99.1961 411.817 100.524 411.496 102.175C411.418 102.576 411.794 102.863 412.134 102.928C414.484 103.381 417.496 102.907 419.762 102.213C421.074 101.813 423.796 100.643 423.277 98.7681Z" fill="#133442"/>
<path d="M412.658 83.1441C412.547 82.7415 412.366 82.3868 412.154 82.0575C412.115 81.9535 412.096 81.8508 412.047 81.7415C411.547 80.6441 410.748 80.0361 409.586 79.7895C408.847 79.6308 408.196 79.8308 407.591 80.1535C405.824 80.3935 404.936 81.4308 404.024 82.5988C402.523 83.5721 401.198 84.9001 400.876 86.5508C400.799 86.9521 401.175 87.2388 401.515 87.3041C403.864 87.7575 406.876 87.2828 409.143 86.5895C410.455 86.1895 413.176 85.0188 412.658 83.1441Z" fill="#133442"/>
<path d="M405.376 65.8213C405.265 65.4187 405.084 65.064 404.872 64.7347C404.833 64.6307 404.814 64.528 404.765 64.4187C404.265 63.3213 403.466 62.7133 402.302 62.4667C401.565 62.308 400.914 62.508 400.309 62.8307C398.542 63.0707 397.654 64.108 396.742 65.276C395.241 66.2493 393.916 67.5773 393.594 69.228C393.517 69.6293 393.893 69.916 394.233 69.9813C396.582 70.4347 399.594 69.96 401.861 69.2667C403.173 68.8667 405.894 67.696 405.376 65.8213Z" fill="#133442"/>
<path d="M402.401 49.4215C402.29 49.0188 402.109 48.6641 401.897 48.3348C401.858 48.2308 401.839 48.1281 401.79 48.0188C401.29 46.9215 400.491 46.3135 399.329 46.0668C398.59 45.9081 397.939 46.1081 397.334 46.4308C395.567 46.6708 394.679 47.7081 393.767 48.8761C392.266 49.8495 390.941 51.1775 390.619 52.8281C390.542 53.2295 390.918 53.5161 391.258 53.5815C393.607 54.0348 396.619 53.5601 398.886 52.8668C400.198 52.4668 402.919 51.2961 402.401 49.4215Z" fill="#133442"/>
<path d="M380.327 65.2878C380.216 64.8851 380.035 64.5305 379.823 64.2011C379.784 64.0971 379.766 63.9945 379.716 63.8851C379.216 62.7878 378.418 62.1798 377.254 61.9331C376.516 61.7745 375.866 61.9745 375.26 62.2971C373.494 62.5371 372.606 63.5745 371.694 64.7425C370.192 65.7158 368.867 67.0438 368.546 68.6945C368.468 69.0958 368.844 69.3825 369.184 69.4478C371.534 69.9011 374.546 69.4265 376.812 68.7331C378.124 68.3331 380.846 67.1625 380.327 65.2878Z" fill="#133442"/>
<path d="M386.313 85.1875C386.202 84.7848 386.021 84.4301 385.809 84.1008C385.77 83.9968 385.751 83.8941 385.702 83.7848C385.202 82.6875 384.403 82.0795 383.241 81.8328C382.502 81.6741 381.851 81.8741 381.246 82.1968C379.479 82.4368 378.591 83.4741 377.679 84.6421C376.178 85.6155 374.853 86.9435 374.531 88.5941C374.454 88.9955 374.83 89.2821 375.17 89.3475C377.519 89.8008 380.531 89.3261 382.798 88.6328C384.11 88.2328 386.831 87.0621 386.313 85.1875Z" fill="#133442"/>
<path d="M395.834 103.686C395.723 103.284 395.542 102.929 395.33 102.6C395.291 102.496 395.273 102.393 395.223 102.284C394.723 101.186 393.925 100.578 392.761 100.332C392.023 100.173 391.373 100.373 390.767 100.696C389.001 100.936 388.113 101.973 387.201 103.141C385.699 104.114 384.374 105.442 384.053 107.093C383.975 107.494 384.351 107.781 384.691 107.846C387.041 108.3 390.053 107.825 392.319 107.132C393.631 106.732 396.353 105.561 395.834 103.686Z" fill="#133442"/>
<path d="M409.761 119.987C409.65 119.585 409.469 119.23 409.257 118.901C409.218 118.797 409.199 118.694 409.15 118.585C408.65 117.487 407.851 116.879 406.687 116.633C405.95 116.474 405.299 116.674 404.694 116.997C402.927 117.237 402.039 118.274 401.127 119.442C399.626 120.415 398.301 121.743 397.979 123.394C397.902 123.795 398.278 124.082 398.618 124.147C400.967 124.601 403.979 124.126 406.246 123.433C407.558 123.033 410.279 121.862 409.761 119.987Z" fill="#133442"/>
<path d="M428.72 133.944C428.609 133.542 428.428 133.187 428.216 132.858C428.177 132.754 428.158 132.651 428.109 132.542C427.609 131.444 426.81 130.836 425.646 130.59C424.909 130.431 424.258 130.631 423.653 130.954C421.886 131.194 420.998 132.231 420.086 133.399C418.585 134.372 417.26 135.7 416.938 137.351C416.861 137.752 417.237 138.039 417.577 138.104C419.926 138.558 422.938 138.083 425.205 137.39C426.517 136.99 429.238 135.819 428.72 133.944Z" fill="#133442"/>
</g>
</svg>
