<svg width="483" height="188" viewBox="0 0 483 188" fill="none" xmlns="http://www.w3.org/2000/svg">
<path d="M483 188H0V0.000527316H483V188Z" fill="#E73252"/>
<mask id="mask0_7_147" style="mask-type:luminance" maskUnits="userSpaceOnUse" x="310" y="2" width="173" height="186">
<path d="M310 188H483V2.68484H310V188Z" fill="white"/>
</mask>
<g mask="url(#mask0_7_147)">
<path d="M577.119 82.0948C577.119 147.727 518.821 200.933 446.907 200.933C374.994 200.933 316.697 147.727 316.697 82.0948C316.697 16.4625 374.994 -36.7434 446.907 -36.7434C518.821 -36.7434 577.119 16.4625 577.119 82.0948Z" fill="#08A039"/>
<path d="M567.186 82.0948C567.186 142.721 513.336 191.867 446.908 191.867C380.48 191.867 326.63 142.721 326.63 82.0948C326.63 21.4689 380.48 -27.6772 446.908 -27.6772C513.336 -27.6772 567.186 21.4689 567.186 82.0948Z" fill="white"/>
<path d="M549.306 82.0949C549.306 133.708 503.461 175.549 446.908 175.549C390.355 175.549 344.509 133.708 344.509 82.0949C344.509 30.4816 390.355 -11.3596 446.908 -11.3596C503.461 -11.3596 549.306 30.4816 549.306 82.0949Z" fill="#E73252"/>
<path d="M467.976 143.742C467.857 143.347 467.662 142.999 467.434 142.676C467.393 142.574 467.373 142.473 467.32 142.366C466.782 141.29 465.924 140.694 464.675 140.452C463.881 140.296 463.182 140.492 462.532 140.809C460.633 141.044 459.679 142.061 458.699 143.207C457.086 144.161 455.662 145.464 455.317 147.082C455.234 147.476 455.638 147.757 456.003 147.821C458.528 148.266 461.764 147.8 464.199 147.12C465.609 146.728 468.533 145.58 467.976 143.742Z" fill="#133442"/>
<path d="M453.653 124.794C453.534 124.399 453.339 124.052 453.111 123.729C453.07 123.627 453.05 123.526 452.997 123.419C452.46 122.343 451.601 121.747 450.352 121.505C449.559 121.349 448.859 121.545 448.209 121.862C446.311 122.097 445.357 123.114 444.377 124.26C442.764 125.214 441.34 126.516 440.994 128.135C440.911 128.529 441.315 128.81 441.68 128.874C444.205 129.318 447.441 128.853 449.877 128.173C451.286 127.781 454.21 126.633 453.653 124.794Z" fill="#133442"/>
<path d="M433.854 112.783C433.735 112.388 433.54 112.04 433.312 111.717C433.271 111.615 433.251 111.514 433.198 111.407C432.66 110.331 431.802 109.735 430.553 109.493C429.759 109.337 429.06 109.533 428.41 109.85C426.511 110.085 425.557 111.102 424.577 112.248C422.964 113.202 421.54 114.505 421.195 116.123C421.112 116.517 421.516 116.798 421.881 116.862C424.405 117.307 427.642 116.841 430.077 116.161C431.487 115.769 434.411 114.621 433.854 112.783Z" fill="#133442"/>
<path d="M418.819 98.8153C418.7 98.4204 418.506 98.0726 418.278 97.7497C418.236 97.6477 418.216 97.547 418.163 97.4398C417.626 96.3638 416.768 95.7675 415.517 95.5256C414.725 95.3701 414.026 95.5662 413.375 95.8826C411.477 96.1179 410.523 97.1352 409.543 98.2805C407.93 99.235 406.506 100.537 406.161 102.156C406.078 102.55 406.482 102.831 406.847 102.895C409.371 103.339 412.607 102.874 415.043 102.194C416.453 101.802 419.377 100.654 418.819 98.8153Z" fill="#133442"/>
<path d="M407.409 83.4941C407.29 83.0992 407.095 82.7514 406.867 82.4285C406.826 82.3265 406.806 82.2258 406.753 82.1186C406.216 81.0425 405.357 80.4463 404.108 80.2044C403.314 80.0488 402.615 80.245 401.965 80.5614C400.067 80.7967 399.113 81.8139 398.133 82.9593C396.52 83.9138 395.096 85.216 394.75 86.8347C394.667 87.2283 395.071 87.5094 395.436 87.5735C397.961 88.018 401.197 87.5525 403.633 86.8726C405.042 86.4804 407.966 85.3324 407.409 83.4941Z" fill="#133442"/>
<path d="M399.585 66.507C399.466 66.1121 399.271 65.7643 399.043 65.4413C399.002 65.3394 398.982 65.2387 398.929 65.1315C398.391 64.0554 397.533 63.4592 396.283 63.2173C395.49 63.0617 394.791 63.2578 394.141 63.5742C392.243 63.8096 391.288 64.8268 390.309 65.9722C388.695 66.9267 387.271 68.2289 386.926 69.8476C386.843 70.2412 387.247 70.5223 387.612 70.5863C390.137 71.0309 393.373 70.5654 395.808 69.8855C397.218 69.4933 400.142 68.3453 399.585 66.507Z" fill="#133442"/>
<path d="M396.388 50.4249C396.269 50.0301 396.074 49.6823 395.847 49.3593C395.805 49.2573 395.785 49.1567 395.732 49.0494C395.195 47.9734 394.337 47.3772 393.087 47.1353C392.294 46.9797 391.595 47.1758 390.944 47.4922C389.046 47.7276 388.092 48.7448 387.112 49.8902C385.499 50.8446 384.075 52.1469 383.729 53.7656C383.646 54.1591 384.05 54.4402 384.416 54.5043C386.94 54.9489 390.176 54.4834 392.612 53.8035C394.021 53.4112 396.945 52.2633 396.388 50.4249Z" fill="#133442"/>
<path d="M372.671 65.9838C372.552 65.589 372.357 65.2412 372.129 64.9182C372.088 64.8162 372.068 64.7156 372.015 64.6083C371.477 63.5323 370.619 62.9361 369.369 62.6942C368.576 62.5386 367.877 62.7347 367.227 63.0511C365.329 63.2865 364.374 64.3037 363.395 65.4491C361.781 66.4035 360.357 67.7058 360.012 69.3245C359.929 69.718 360.333 69.9991 360.698 70.0632C363.223 70.5078 366.459 70.0423 368.894 69.3624C370.304 68.9701 373.228 67.8222 372.671 65.9838Z" fill="#133442"/>
<path d="M379.102 85.4978C378.983 85.1029 378.788 84.7551 378.561 84.4322C378.519 84.3302 378.499 84.2295 378.446 84.1223C377.909 83.0462 377.051 82.45 375.801 82.2081C375.008 82.0526 374.308 82.2487 373.658 82.5651C371.76 82.8004 370.806 83.8177 369.826 84.963C368.213 85.9175 366.789 87.2198 366.443 88.8384C366.36 89.232 366.764 89.5131 367.13 89.5772C369.654 90.0217 372.89 89.5563 375.326 88.8764C376.735 88.4841 379.659 87.3361 379.102 85.4978Z" fill="#133442"/>
<path d="M389.333 103.638C389.214 103.243 389.019 102.896 388.791 102.573C388.75 102.471 388.73 102.37 388.677 102.263C388.139 101.187 387.281 100.59 386.03 100.349C385.238 100.193 384.539 100.389 383.889 100.706C381.99 100.941 381.036 101.958 380.056 103.103C378.443 104.058 377.019 105.36 376.674 106.979C376.591 107.372 376.995 107.654 377.36 107.718C379.884 108.162 383.121 107.697 385.556 107.017C386.966 106.625 389.89 105.477 389.333 103.638Z" fill="#133442"/>
<path d="M404.296 119.623C404.177 119.228 403.983 118.881 403.755 118.558C403.713 118.456 403.693 118.355 403.64 118.248C403.103 117.172 402.245 116.576 400.994 116.334C400.202 116.178 399.503 116.374 398.852 116.691C396.954 116.926 396 117.943 395.02 119.089C393.407 120.043 391.983 121.345 391.638 122.964C391.555 123.357 391.959 123.639 392.324 123.703C394.848 124.147 398.085 123.682 400.52 123.002C401.93 122.61 404.854 121.462 404.296 119.623Z" fill="#133442"/>
<path d="M424.667 133.31C424.548 132.915 424.353 132.567 424.126 132.244C424.084 132.142 424.064 132.042 424.011 131.934C423.474 130.858 422.616 130.262 421.365 130.02C420.573 129.865 419.874 130.061 419.223 130.377C417.325 130.613 416.371 131.63 415.391 132.775C413.778 133.73 412.354 135.032 412.009 136.651C411.925 137.044 412.329 137.325 412.695 137.389C415.219 137.834 418.455 137.368 420.891 136.688C422.301 136.296 425.225 135.148 424.667 133.31Z" fill="#133442"/>
</g>
<path d="M412.011 3.05176e-05C412.011 3.05176e-05 405.843 9.2757 417.665 15.4595C417.665 15.4595 388.88 34.7516 425.889 44.4299C425.889 44.4299 412.525 69.6631 459.301 69.0362C459.301 69.0362 462.385 78.8368 477.291 78.2603H483V3.05176e-05H412.011Z" fill="white"/>
<path d="M22.5513 118.618C25.673 109.611 39.8606 110.137 41.2782 117.425C35.3184 114.114 29.9287 114.513 28.9348 118.886C28.3678 121.137 30.9225 123.919 35.6019 123.919C44.9669 124.05 53.6215 109.212 63.4102 92.3841C78.5917 66.6826 84.1247 62.4436 98.0289 64.2969C91.3588 65.7574 84.835 71.3201 76.6041 89.8675C80.5793 89.207 83.6979 89.7337 86.2526 91.0603C91.7856 90.0013 96.6083 86.4228 100.157 80.9909C108.101 68.8035 99.73 55.5542 81.0031 58.4665C69.6535 60.3227 59.1545 68.0092 53.0545 76.4872C46.9514 84.968 45.9607 95.0374 50.3596 97.554C40.8514 107.757 29.9287 91.7236 44.5401 75.2944C54.3318 64.2969 71.6412 54.4951 87.6701 54.3613C108.241 54.3613 119.734 67.8754 111.083 82.1838C106.967 88.8084 98.0289 92.9165 90.6516 94.7698C92.9196 97.554 94.0567 100.999 94.4805 103.515C95.9011 112.79 91.9258 124.184 96.6083 124.184C100.864 124.184 109.945 110.934 116.472 98.3483C117.039 97.9497 117.89 98.2145 117.89 99.0088C108.668 116.366 100.864 132.926 90.2248 132.926C82.5639 132.926 79.302 124.184 84.1247 111.068C86.1124 105.767 86.3928 99.8059 84.1247 95.8317C80.0093 96.0964 76.4639 95.1684 74.7598 93.9755L74.1928 95.3022C64.1205 119.546 51.3504 133.857 37.5895 133.857C24.2524 133.857 20.4235 124.582 22.5513 118.618Z" fill="#08A039"/>
<path d="M130.956 107.887C135.352 97.0229 133.794 92.5192 131.663 92.5192C128.684 92.5192 124.996 96.6243 120.457 106.694C116.484 115.704 116.911 121.933 120.6 121.933C123.295 121.933 126.84 117.822 130.956 107.887ZM109.814 107.622C115.634 96.6243 123.862 90.3982 131.806 90.0025C137.623 89.8687 140.744 93.5782 139.327 100.863C142.872 101.529 146.134 100.599 148.265 98.3467C148.972 97.951 149.966 98.2157 149.682 99.01C146.988 102.19 142.732 104.043 138.616 103.781C138.049 105.768 137.199 108.02 136.062 110.406C130.812 121.27 121.45 128.689 112.936 128.159C105.275 127.63 104.425 117.822 109.814 107.622Z" fill="#08A039"/>
<path d="M151.246 91.7231H160.751L158.483 96.4944C162.028 92.6512 165.29 90.1317 169.546 90.1317C173.238 90.1317 174.512 92.3836 173.945 96.0959C177.493 92.3836 180.899 90.1317 185.438 90.1317C191.254 90.1317 191.114 94.7692 187.992 101.659L181.182 116.235C180.188 118.487 180.048 120.738 181.466 120.738C184.017 120.738 192.105 110.934 198.492 98.3478C199.199 97.952 200.052 98.214 199.909 99.0111C190.828 116.366 182.033 128.425 175.506 128.425C170.967 128.425 169.122 124.317 170.683 119.944C172.387 114.777 177.067 105.77 178.344 102.721C179.338 100.07 179.478 97.4197 177.21 97.4197C174.939 97.4197 173.095 99.9392 170.4 105.898L160.327 127.628H150.819L162.455 102.587C163.733 99.4068 163.446 97.4197 161.318 97.4197C159.05 97.4197 157.346 99.142 154.935 104.312L144.009 127.628H134.504L151.246 91.7231Z" fill="#08A039"/>
<path d="M203.887 81.2556C203.887 77.9447 206.726 75.2943 210.274 75.2943C213.819 75.2943 216.658 77.9447 216.658 81.2556C216.658 84.5694 213.819 87.2198 210.274 87.2198C206.726 87.2198 203.887 84.5694 203.887 81.2556ZM190.553 113.32L201.903 91.7236H211.548L200.626 114.114C199.065 117.693 196.794 120.739 199.205 120.739C202.613 120.739 211.265 110.934 217.651 98.3482C218.359 97.9497 219.209 98.2144 219.069 99.0087C209.987 116.366 200.199 128.423 193.672 128.423C186.298 128.423 186.298 121.004 190.553 113.32Z" fill="#08A039"/>
<path d="M220.63 91.7231H230.135L227.3 97.6873C231.272 93.3145 235.388 90.1317 239.36 90.1317C244.75 90.1317 245.884 95.1678 241.912 103.384L235.952 116.235C234.818 118.487 234.675 120.738 236.235 120.738C238.79 120.738 246.734 110.934 253.261 98.3478C253.831 97.952 254.682 98.214 254.682 99.0111C245.46 116.366 236.662 128.425 230.279 128.425C225.739 128.425 223.892 124.317 225.313 119.944C227.017 114.777 230.849 107.489 232.123 104.443C234.394 99.5406 233.397 97.4197 231.413 97.4197C229.001 97.4197 225.596 102.191 222.901 107.09L213.393 127.628H203.888L220.63 91.7231Z" fill="#08A039"/>
<path d="M266.605 106.961C270.15 100.863 273.555 93.4468 269.723 93.4468C265.894 93.4468 261.495 99.9377 256.386 108.68C251.283 117.295 251.423 120.874 254.261 120.874C257.1 120.874 261.639 115.442 266.605 106.961ZM245.183 109.079C251.14 99.1434 259.511 90.2669 268.166 90.2669C270.86 90.2669 273.132 91.3259 272.988 95.0382L274.689 91.7216H284.338L273.555 114.115C271.854 117.694 269.723 120.74 272.135 120.74C275.4 120.74 284.054 110.935 290.581 98.3491C291.148 97.9506 291.999 98.2153 291.999 99.0096C282.92 116.367 272.988 128.423 266.461 128.423C261.639 128.423 259.511 123.125 261.352 117.426C257.1 123.521 252.841 128.159 247.875 128.159C240.217 128.159 239.223 119.148 245.183 109.079Z" fill="#08A039"/>
<path d="M189.361 15.5138C179.682 16.8205 171.985 23.6815 163.705 43.285C188.895 37.95 201.021 14.0989 189.361 15.5138ZM140.265 70.074C138.399 70.8398 136.534 71.3836 134.552 71.9245C119.974 75.6283 120.206 65.6101 130.702 64.3034C132.686 64.0871 135.019 64.4144 137.698 65.0664C141.43 61.7982 144.698 55.9165 150.761 46.5503C127.672 43.285 137.698 16.7123 154.377 26.6223C144.463 26.9497 139.567 41.6537 152.395 43.9369L153.328 42.522C167.202 21.7228 178.048 13.5551 191.111 12.3566C209.069 10.6143 204.521 41.1071 162.54 46.334C158.34 56.1358 152.627 63.1049 145.161 67.5688C159.272 73.0148 177.35 82.4892 186.913 76.1749C178.167 99.4793 153.328 78.0253 140.265 70.074Z" fill="white"/>
<path d="M194.615 54.0658C197.533 49.0553 200.328 42.9601 197.182 42.9601C194.033 42.9601 190.418 48.2952 186.22 55.4807C182.022 62.5608 182.138 65.5017 184.47 65.5017C186.802 65.5017 190.534 61.0349 194.615 54.0658ZM177.007 55.8081C181.906 47.6404 188.784 40.3467 195.899 40.3467C198.112 40.3467 199.981 41.215 199.862 44.2669L201.264 41.5424H209.193L200.328 59.9446C198.932 62.8882 197.182 65.3935 199.164 65.3935C201.846 65.3935 208.959 57.3311 214.324 46.9885C214.79 46.6611 215.492 46.8803 215.492 47.5322C208.026 61.7979 199.862 71.7078 194.5 71.7078C190.534 71.7078 188.784 67.3521 190.299 62.669C186.802 67.6795 183.306 71.4915 179.224 71.4915C172.925 71.4915 172.108 64.0868 177.007 55.8081Z" fill="white"/>
<path d="M205.114 63.7574C205.346 61.0358 207.211 58.0979 209.196 58.3142C205.812 62.018 207.912 65.7189 211.177 65.83C214.442 65.9381 215.375 63.5411 215.375 61.4714C215.491 58.206 213.625 50.6903 214.327 46.9865C214.793 44.2649 216.89 42.1952 219.341 41.5405H226.688C218.875 46.3346 223.774 54.2859 222.957 61.5796C222.838 63.1055 222.49 64.4122 222.021 65.4997C227.155 61.9098 231.118 55.5926 235.55 46.9865C236.02 46.662 236.718 46.8783 236.718 47.5331C229.136 61.7988 222.14 71.7087 212.577 71.7087H211.994C207.562 71.7087 204.879 68.005 205.114 63.7574Z" fill="white"/>
<path d="M250.481 39.801C257.245 39.5818 257.127 45.6798 253.743 49.0562C247.914 54.8268 243.134 50.2547 246.399 46.662C253.627 47.8577 254.91 41.2159 249.783 41.9789C239.4 43.3938 230.772 64.6314 241.619 64.6314C247.679 64.6314 253.395 59.6209 260.16 46.9865C260.742 46.7702 261.208 46.9865 261.327 47.5331C253.279 63.8685 244.067 71.7087 236.019 71.7087C218.993 71.7087 231.12 40.3448 250.481 39.801Z" fill="white"/>
<path d="M271.124 54.0658C274.041 49.0553 276.84 42.9601 273.691 42.9601C270.542 42.9601 266.926 48.2952 262.728 55.4807C258.531 62.5608 258.647 65.5017 260.979 65.5017C263.311 65.5017 267.042 61.0349 271.124 54.0658ZM253.516 55.8081C258.415 47.6404 265.295 40.3467 272.407 40.3467C274.621 40.3467 276.489 41.215 276.373 44.2669L277.773 41.5424H285.702L276.84 59.9446C275.441 62.8882 273.691 65.3935 275.672 65.3935C278.355 65.3935 285.467 57.3311 290.832 46.9885C291.299 46.6611 292 46.8803 292 47.5322C284.534 61.7979 276.373 71.7078 271.008 71.7078C267.042 71.7078 265.295 67.3521 266.81 62.669C263.311 67.6795 259.814 71.4915 255.732 71.4915C249.434 71.4915 248.617 64.0868 253.516 55.8081Z" fill="white"/>
<path d="M61.3303 160.693H61.376V147.235H62.8302V162.907H61.062L54.8431 149.493H54.7974V162.907H53.3433V147.235H55.1571L61.3303 160.693Z" fill="white"/>
<path d="M72.6639 147.237H74.1181V158.605C74.1181 160.819 74.6546 162.072 77.1849 162.072C79.8005 162.072 80.3827 160.589 80.3827 158.479V147.237H81.8369V158.143C81.8369 161.195 80.8552 163.285 77.2306 163.285C74.0053 163.285 72.6639 161.636 72.6639 158.773V147.237Z" fill="white"/>
<path d="M90.6434 148.449V147.236H99.7035V148.449H95.9021V162.908H94.4479V148.449H90.6434Z" fill="white"/>
<path d="M109.716 154.321H112.268C112.759 154.321 115.222 154.153 115.222 151.354C115.222 149.054 114.1 148.448 111.82 148.448H109.716V154.321ZM109.716 155.534V162.91H108.262V147.238H111.506C114.572 147.238 116.676 148.075 116.676 151.249C116.676 152.775 115.981 154.571 114.213 154.927V154.97C116.161 155.428 116.429 156.829 116.45 158.79C116.496 159.545 116.383 162.304 117.209 162.719V162.91H115.621C114.996 161.595 115.042 158.919 114.95 157.768C114.795 155.682 113.118 155.534 111.216 155.534H109.716Z" fill="white"/>
<path d="M126.528 147.238H127.985V162.91H126.528V147.238Z" fill="white"/>
<path d="M147.456 157.601C147.523 160.274 146.069 163.284 142.712 163.284C137.859 163.284 137.859 157.957 137.859 154.635C137.859 151.415 138.307 146.863 142.758 146.863C145.779 146.863 147.3 149.098 147.322 151.751H145.868C145.734 149.892 144.974 148.073 142.712 148.073C139.179 148.073 139.313 152.836 139.313 154.948C139.313 157.351 139.179 162.071 142.871 162.071C145.374 162.071 145.935 159.523 146.002 157.601H147.456Z" fill="white"/>
<path d="M157.381 147.238H158.839V162.91H157.381V147.238Z" fill="white"/>
<path d="M177.011 155.093C177.011 152.793 177.032 148.073 173.453 148.073C170.075 148.073 170.051 152.691 170.051 154.948C170.051 157.351 169.917 162.071 173.609 162.071C177.145 162.071 177.011 157.308 177.011 155.093ZM168.597 154.635C168.597 151.415 169.066 146.86 173.52 146.86C178.443 146.86 178.465 152.002 178.465 155.407C178.465 158.814 178.197 163.284 173.474 163.284C168.621 163.284 168.597 157.957 168.597 154.635Z" fill="white"/>
<path d="M195.928 160.693H195.974V147.235H197.428V162.907H195.66L189.441 149.493H189.395V162.907H187.941V147.235H189.755L195.928 160.693Z" fill="white"/>
<path d="M207.395 147.238H208.849V162.91H207.395V147.238Z" fill="white"/>
<path d="M223.333 154.362C225.797 155.325 227.629 156.034 227.629 158.875C227.629 161.571 225.751 163.284 222.821 163.284C219.755 163.284 218.142 161.258 218.209 158.479H219.642C219.62 160.443 220.492 162.072 222.797 162.072C224.833 162.072 226.178 160.859 226.178 158.92C226.178 156.557 224.342 156.182 222.416 155.47C220.157 154.636 218.547 153.696 218.547 151.188C218.547 148.637 220.178 146.861 222.91 146.861C225.528 146.861 227.251 148.555 227.184 151.02H225.775C225.864 149.286 224.766 148.074 222.888 148.074C220.983 148.074 220.001 149.389 220.001 151.103C220.001 152.649 220.538 153.255 222.038 153.861L223.333 154.362Z" fill="white"/>
<path d="M235.673 148.449V147.236H244.736V148.449H240.932V162.908H239.478V148.449H235.673Z" fill="white"/>
<path d="M258.483 156.87L256.267 148.953H256.224L254.008 156.87H258.483ZM257.096 147.236L261.592 162.908H260.114L258.797 158.083H253.694L252.328 162.908H250.92L255.416 147.236H257.096Z" fill="white"/>
</svg>
