<svg width="336" height="336" viewBox="0 0 336 336" fill="none" xmlns="http://www.w3.org/2000/svg">
<g clip-path="url(#clip0_4_2)">
<path d="M223 86C224.234 86.6734 225.469 87.3466 226.703 88.0195C234.686 92.4899 241.479 97.542 248 104C249.017 104.97 250.036 105.939 251.055 106.906C256.792 112.439 256.792 112.439 259 115C259 115.99 259 116.98 259 118C259.66 118 260.32 118 261 118C264 122.112 266.484 126.579 269 131C269.355 131.62 269.709 132.241 270.075 132.88C282.052 154.216 286.21 178.571 280.25 202.628C277.382 212.659 273.159 221.956 268 231C267.457 231.981 266.915 232.962 266.355 233.973C257.452 249.029 243.827 261.055 229 270C227.432 270.96 225.864 271.921 224.297 272.883C219.87 275.598 215.437 278.302 211 281C210.67 280.34 210.34 279.68 210 279C211.074 277.004 211.074 277.004 212.688 274.562C220.194 262.245 222.487 248.904 219.094 234.707C214.7 219.816 205.998 209.748 192.699 201.887C186.153 198.388 179.068 196.186 172 194C170.998 193.682 169.997 193.363 168.965 193.035C164.185 191.62 159.505 190.757 154.562 190.125C141.706 188.424 128.863 185.27 117 180C115.834 179.577 115.834 179.577 114.645 179.145C98.4695 173.256 85.3427 163.063 77 148C76.3606 146.928 75.7212 145.855 75.0625 144.75C73.1355 137.949 72.4257 130.179 74.9609 123.449C76.4641 121.073 78.1113 119.085 80 117C80.8237 116.045 81.6474 115.09 82.4961 114.105C107.035 86.1367 107.035 86.1367 121.344 84.7773C125.392 85.078 128.339 85.6868 131.312 88.5625C135.229 93.849 136.193 100.545 137.537 106.855C141.087 123.29 145.076 139.582 154 154C154.487 154.81 154.975 155.619 155.477 156.453C160.152 163.31 166.892 167.201 173.759 171.558C186.441 179.721 198.34 188.57 209.517 198.692C210.868 199.884 212.277 201.009 213.691 202.125C215.89 203.91 217.668 205.723 219.5 207.875C220.32 208.83 220.32 208.83 221.156 209.805C221.765 210.529 222.373 211.254 223 212C223.819 212.926 224.637 213.851 225.48 214.805C228.165 218.032 230.003 221.479 231.812 225.25C232.279 226.186 232.279 226.186 232.756 227.141C235 231.718 235 231.718 235 234C235.66 234 236.32 234 237 234C236.754 212.133 233.073 192.526 223 173C222.219 171.413 222.219 171.413 221.422 169.793C216.347 160.63 207.955 155.558 199.176 150.312C184.648 141.626 170.074 128.125 164 112C162.934 105.131 165.584 100.427 169.438 94.9609C182.354 78.8772 205.337 75.7603 223 86Z" fill="#FD9002"/>
<path d="M65.7656 157.707C72.6534 158.331 77.2662 164.928 81.4805 169.965C85.0385 174.477 88.3891 179.138 91.7227 183.816C100.284 195.788 109.299 208.325 124.535 211.613C127.168 212.026 129.806 212.339 132.453 212.641C141.551 213.681 150.202 215.465 159 218C159.644 218.184 160.287 218.369 160.95 218.559C175.679 222.875 190.788 229.424 199.742 242.555C203.38 249.627 202.592 256.793 200.25 264.188C196.904 273.387 191.799 279.904 182.891 284.152C177.844 286.317 173.374 286.577 167.938 286.438C167.024 286.424 166.111 286.411 165.17 286.397C139.129 285.715 115.178 275.083 95 259C94.3671 258.533 93.7341 258.067 93.082 257.586C74.407 243.125 61.926 216.489 58.3135 193.626C57.7076 188.55 57.5585 183.483 57.5 178.375C57.4815 177.368 57.4629 176.36 57.4438 175.323C57.4959 169.21 58.1209 158.517 65.7656 157.707Z" fill="#FD8D02"/>
<path d="M128 86C132.719 88.8546 134.257 93.242 135.629 98.4001C136.313 101.209 136.935 104.028 137.537 106.855C141.087 123.29 145.076 139.582 154 154C154.487 154.81 154.975 155.619 155.477 156.453C160.152 163.31 166.892 167.201 173.759 171.558C186.442 179.721 198.341 188.57 209.517 198.692C210.867 199.883 212.275 201.006 213.688 202.121C217.257 205.021 220.043 208.497 223 212C223.825 212.907 224.65 213.815 225.5 214.75C227 217 227 217 226.75 219.312C226.502 219.869 226.255 220.426 226 221C225.34 221 224.68 221 224 221C224 219.35 224 217.7 224 216C222.886 215.66 222.886 215.66 221.75 215.312C218.478 213.751 217.14 211.878 215 209C214.34 208.67 213.68 208.34 213 208C212.066 211.01 211.956 211.866 213 215C213.66 215.33 214.32 215.66 215 216C221.346 228.554 223.359 238.974 223 253C222.67 253 222.34 253 222 253C221.944 251.875 221.944 251.875 221.887 250.727C220.891 235.223 215.796 221.019 204.438 210.078C194.783 201.847 183.931 197.689 172 194C170.998 193.682 169.997 193.363 168.965 193.035C164.185 191.62 159.505 190.757 154.562 190.125C141.706 188.424 128.863 185.27 117 180C115.834 179.577 115.834 179.577 114.645 179.145C98.4695 173.256 85.3427 163.063 77 148C76.3606 146.928 75.7212 145.855 75.0625 144.75C73.1355 137.949 72.4257 130.179 74.9609 123.449C76.4641 121.073 78.1113 119.085 80 117C81.2356 115.567 81.2356 115.567 82.4961 114.105C111.72 80.7974 111.72 80.7974 128 86Z" fill="#FC7E07"/>
<path d="M195.527 35.1719C199.073 37.7932 202.028 40.7603 205 44C206.237 45.1756 206.237 45.1756 207.5 46.375C217 56.35 217 56.35 217 61C213.558 59.509 211.264 57.5204 208.562 54.9375C190.242 38.1349 171.218 29.9691 146.398 30.7891C144.932 30.855 143.466 30.9236 142 31C142.609 31.1002 143.218 31.2005 143.845 31.3037C164.641 34.774 182.661 40.0564 198.828 54.1172C201.055 56.1279 201.055 56.1279 204 58C204 58.66 204 59.32 204 60C204.928 60.3713 204.928 60.3713 205.875 60.75C208.375 62.2205 208.833 63.414 210 66C183.75 64.8661 156.087 54.1596 133.014 42.0498C130.929 40.9632 128.831 39.9061 126.73 38.8516C125.362 38.152 123.993 37.4515 122.625 36.75C121.988 36.4331 121.351 36.1161 120.695 35.7896C117.297 34.0149 115.235 32.7214 114 29C120.191 27.3339 120.191 27.3339 122.835 26.6416C125.902 25.8383 128.941 25.0187 131.965 24.0664C153.506 17.6073 177.13 22.9955 195.527 35.1719Z" fill="#108F24"/>
<path d="M328 78C328 78.66 328 79.32 328 80C319.786 83.7054 311.83 87.0535 303 89C302.127 89.205 301.255 89.4099 300.355 89.6211C285.837 92.5654 271.109 91.9934 256.997 87.6118C254.849 86.9539 252.69 86.3562 250.523 85.7617C249.057 85.3433 247.591 84.9228 246.125 84.5C245.44 84.3109 244.755 84.1218 244.05 83.927C239.329 82.4906 239.329 82.4906 237.555 79.8438C237.372 79.2353 237.189 78.6269 237 78C239.041 77.5185 241.083 77.0399 243.125 76.5625C244.262 76.2957 245.399 76.0288 246.57 75.7539C254.43 74.0262 261.989 73.8138 270.002 73.8147C272.23 73.8125 274.456 73.7944 276.684 73.7754C284.357 73.7456 291.512 74.2022 299 76C300.871 76.2448 302.745 76.4639 304.625 76.625C305.882 76.7372 305.882 76.7372 307.164 76.8516C308.073 76.925 308.073 76.925 309 77C308.196 74.8573 308.196 74.8573 306.207 74.2188C290.058 69.3716 268.449 66.6006 252 71C249.406 71.069 246.842 71.0944 244.25 71.0625C243.553 71.058 242.855 71.0535 242.137 71.0488C240.424 71.0371 238.712 71.0192 237 71C237.33 70.01 237.66 69.02 238 68C240.844 66.6836 240.844 66.6836 244.5 65.4375C245.686 65.0237 246.872 64.6099 248.094 64.1836C276.266 55.3502 303.417 63.4323 328 78Z" fill="#108E24"/>
<path d="M65.7656 157.707C72.6534 158.331 77.2662 164.928 81.4805 169.965C85.0385 174.477 88.3891 179.138 91.7227 183.816C100.602 196.24 109.06 205.401 123 212C118.129 213.432 113.4 213.009 108.375 212.812C106.954 212.784 106.954 212.784 105.504 212.756C96.6652 212.411 89.2 209.89 81.875 204.875C81.1299 204.377 80.3848 203.88 79.6172 203.367C79.0835 202.916 78.5498 202.465 78 202C78 201.34 78 200.68 78 200C77.34 200 76.68 200 76 200C75.67 199.34 75.34 198.68 75 198C73.8862 197.381 73.8862 197.381 72.75 196.75C69.3149 194.564 67.3178 192.348 65 189C64.1875 185.125 64.1875 185.125 64 182C63.67 182 63.34 182 63 182C63 178.04 63 174.08 63 170C63.66 170 64.32 170 65 170C64.67 169.01 64.34 168.02 64 167C64.99 167 65.98 167 67 167C67 165.68 67 164.36 67 163C65.35 163.33 63.7 163.66 62 164C61.9573 162.334 61.9594 160.666 62 159C63 158 63 158 65.7656 157.707Z" fill="#F7710F"/>
<path d="M237 9C238.284 9.5008 238.284 9.5008 239.594 10.0117C242 12 242 12 242.77 15.8594C242.824 17.4887 242.835 19.1199 242.812 20.75C242.805 21.6267 242.797 22.5034 242.789 23.4067C242.123 39.7202 234.803 55.4907 226 69C225.34 69 224.68 69 224 69C224.217 68.2472 224.433 67.4944 224.656 66.7188C227.164 57.1532 229.728 44.6941 225.25 35.3125C223.879 33.0821 222.362 31.2236 220.688 29.1875C220.131 28.4656 219.574 27.7437 219 27C219.495 25.515 219.495 25.515 220 24C221.926 23.3025 223.855 22.6089 225.793 21.9453C229.421 20.3915 232.457 18.0147 235 15C235.719 12.8945 235.719 12.8945 236 11C231.279 12.5427 226.583 14.0779 222 16C223.749 11.74 225.911 10.5592 229.977 8.69531C232.748 7.7428 234.291 7.90173 237 9Z" fill="#653209"/>
<path d="M75 169C75.6701 171.124 76.336 173.249 77 175.375C77.3713 176.558 77.7425 177.742 78.125 178.961C79 182 79 182 79 184C80.65 184.33 82.3 184.66 84 185C84.33 186.32 84.66 187.64 85 189C85.66 189 86.32 189 87 189C87.66 192.3 88.32 195.6 89 199C90.65 199.33 92.3 199.66 94 200C94.66 200.33 95.32 200.66 96 201C96 201.99 96 202.98 96 204C97.65 204.33 99.3 204.66 101 205C101 205.99 101 206.98 101 208C102.32 208.33 103.64 208.66 105 209C104.505 209.99 104.505 209.99 104 211C94.6081 212.186 87.6316 209.53 80 204C78.6289 201.766 78.6289 201.766 78 200C77.34 200 76.68 200 76 200C74.6149 198.376 73.2924 196.699 72 195C71.1131 194.072 70.2263 193.144 69.3125 192.188C66.5832 188.425 66.1514 185.492 66 181C65.9149 180.291 65.8298 179.582 65.7422 178.852C65.5625 176.75 65.5625 176.75 66 173C69.1178 170.229 70.7985 169 75 169Z" fill="#F8733B"/>
<path d="M194 34C197.873 37.1413 201.47 40.4813 205 44C205.849 44.8302 206.699 45.6603 207.574 46.5156C209.805 48.8008 211.836 51.1187 213.812 53.625C214.417 54.3804 215.022 55.1358 215.645 55.9141C217 58 217 58 217 61C213.558 59.5091 211.264 57.5204 208.562 54.9375C197.428 44.7253 185.23 37.3972 170.875 32.75C169.823 32.3865 168.771 32.023 167.688 31.6484C156.214 27.9174 145.674 28.3798 134 31C133.67 30.01 133.34 29.02 133 28C132.67 27.34 132.34 26.68 132 26C153.527 19.9219 175.068 21.4581 194 34Z" fill="#057C13"/>
<path d="M273.25 60.8125C274.312 60.8131 275.374 60.8138 276.469 60.8145C281.134 60.8408 285.434 60.9658 290 62C290 62.33 290 62.66 290 63C280.1 63 270.2 63 260 63C259.67 64.32 259.34 65.64 259 67C260.939 66.9652 260.939 66.9652 262.918 66.9297C272.845 66.8074 282.238 67.0049 292 69C292 69.33 292 69.66 292 70C290.93 69.9948 289.861 69.9895 288.759 69.9841C284.785 69.966 280.812 69.9545 276.839 69.9451C275.12 69.94 273.401 69.9332 271.683 69.9246C269.21 69.9124 266.738 69.9068 264.266 69.9023C263.499 69.8972 262.732 69.892 261.942 69.8867C258.433 69.8863 255.383 70.1536 252 71C249.406 71.069 246.842 71.0943 244.25 71.0625C243.553 71.058 242.855 71.0535 242.137 71.0488C240.424 71.0371 238.712 71.0192 237 71C237.33 70.01 237.66 69.02 238 68C240.844 66.6836 240.844 66.6836 244.5 65.4375C245.686 65.0237 246.872 64.6099 248.094 64.1836C256.603 61.5225 264.322 60.708 273.25 60.8125Z" fill="#3DA144"/>
<path d="M219 164C222.772 165.567 225.164 167.92 228.027 170.797C228.498 171.268 228.969 171.739 229.454 172.225C230.447 173.221 231.438 174.22 232.427 175.221C233.924 176.736 235.429 178.244 236.936 179.75C246.752 189.616 246.752 189.616 250 194C249.67 194.99 249.34 195.98 249 197C248.374 196.218 247.747 195.435 247.102 194.629C246.284 193.617 245.467 192.605 244.625 191.562C243.813 190.553 243.001 189.544 242.164 188.504C240.25 185.965 240.25 185.965 238 185C238 184.34 238 183.68 238 183C236.35 182.67 234.7 182.34 233 182C232.897 181.381 232.794 180.762 232.688 180.125C232.125 177.635 232.125 177.635 229 176C228.67 176.66 228.34 177.32 228 178C228.66 178 229.32 178 230 178C230.124 179.145 230.124 179.145 230.25 180.312C231.428 186.106 233.602 191.619 235.859 197.078C239.999 207.808 240.367 220.627 240 232C239.01 232.495 239.01 232.495 238 233C237.997 232.147 237.995 231.293 237.992 230.414C237.328 208.935 231.629 187.699 220.758 169.137C219 166 219 166 219 164Z" fill="#F02F0A"/>
<path d="M143 142C145.571 142.363 146.717 142.665 148.422 144.68C148.86 145.404 149.298 146.129 149.75 146.875C150.272 147.688 150.794 148.502 151.332 149.34C152.446 151.116 153.547 152.9 154.637 154.691C159.826 162.605 165.989 166.759 173.856 171.641C177.775 174.125 181.573 176.779 185.375 179.438C186.119 179.946 186.862 180.454 187.629 180.978C188.659 181.699 188.659 181.699 189.711 182.434C190.322 182.857 190.934 183.28 191.564 183.717C193 185 193 185 194 188C191.25 187.812 191.25 187.812 188 187C186.651 185.346 185.319 183.678 184 182C181.727 180.808 179.391 179.947 177 179C176.67 178.34 176.34 177.68 176 177C175.01 176.67 174.02 176.34 173 176C173 175.34 173 174.68 173 174C171.948 173.773 170.896 173.546 169.812 173.312C165.799 172.174 163.802 170.097 161 167C159.345 165.653 157.68 164.317 156 163C154 161 154 161 153 159C152.34 159 151.68 159 151 159C149.387 157.793 149.387 157.793 148 156C147.707 153.738 147.707 153.738 147.812 151.312C147.853 150.1 147.853 150.1 147.895 148.863C147.947 147.941 147.947 147.941 148 147C146.68 147.33 145.36 147.66 144 148C143.67 146.02 143.34 144.04 143 142Z" fill="#F8520F"/>
<path d="M130 214C153.65 214.063 177.228 220.937 195 237C194.505 238.485 194.505 238.485 194 240C193.34 239.34 192.68 238.68 192 238C191.051 237.711 190.103 237.423 189.125 237.125C185.769 235.917 184.355 234.607 182 232C181.34 231.67 180.68 231.34 180 231C180 230.34 180 229.68 180 229C178.928 228.711 177.855 228.423 176.75 228.125C173 227 173 227 170.938 225.938C168.898 224.838 168.898 224.838 166 224.5C163 224 163 224 161.234 223.039C158.282 221.666 155.468 221.326 152.25 220.875C151.08 220.707 149.909 220.54 148.703 220.367C147.365 220.185 147.365 220.185 146 220C146 219.34 146 218.68 146 218C144.35 218 142.7 218 141 218C141 217.34 141 216.68 141 216C139.928 216.041 138.855 216.082 137.75 216.125C134.223 216.007 132.939 215.652 130 214Z" fill="#FC680D"/>
<path d="M270.002 73.8147C272.23 73.8125 274.456 73.7944 276.684 73.7754C284.309 73.7463 291.585 74.0012 299 76C299 76.33 299 76.66 299 77C297.845 76.9895 296.69 76.979 295.499 76.9683C291.204 76.932 286.908 76.9091 282.612 76.8901C280.755 76.8801 278.897 76.8665 277.04 76.8491C274.366 76.8248 271.693 76.8135 269.02 76.8047C268.192 76.7944 267.365 76.784 266.513 76.7734C262.154 76.7726 259.016 77.1322 255 79C254.01 79 253.02 79 252 79C252 79.99 252 80.98 252 82C247.71 82 243.42 82 239 82C238.34 80.68 237.68 79.36 237 78C239.041 77.5185 241.083 77.0399 243.125 76.5625C244.262 76.2957 245.399 76.0288 246.57 75.7539C254.43 74.0262 261.989 73.8138 270.002 73.8147Z" fill="#087A24"/>
<path d="M191 33C196.706 35.9111 200.626 39.362 205 44C206.237 45.1756 206.237 45.1756 207.5 46.375C217 56.35 217 56.35 217 61C213.558 59.509 211.264 57.5204 208.562 54.9375C202.449 49.3164 195.471 43.7357 188 40C188 39.01 188 38.02 188 37C188.99 37 189.98 37 191 37C191 35.68 191 34.36 191 33Z" fill="#0C8012"/>
<path d="M95 190C97.4595 192.434 99.8853 194.874 102.219 197.43C108.508 204.171 114.751 208.095 123 212C119.814 212.965 117.112 213.052 113.797 212.879C112.817 212.831 111.837 212.782 110.828 212.732C109.812 212.676 108.797 212.62 107.75 212.562C106.719 212.51 105.688 212.458 104.625 212.404C102.083 212.275 99.5414 212.14 97 212C97 211.67 97 211.34 97 211C100.465 210.505 100.465 210.505 104 210C103.01 209.34 102.02 208.68 101 208C101 207.01 101 206.02 101 205C99.35 204.67 97.7 204.34 96 204C96.33 202.35 96.66 200.7 97 199C98.32 198.67 99.64 198.34 101 198C100.01 198 99.02 198 98 198C95 192.25 95 192.25 95 190Z" fill="#FB6317"/>
<path d="M69 251C67.8483 253.468 66.9522 255.048 65 257C64.5995 259.323 64.2603 261.657 64 264C64.5195 263.711 65.039 263.423 65.5742 263.125C72.5009 259.438 72.5009 259.438 77 260C75.5791 263.176 73.8359 265.494 71.5 268.062C69.4418 270.334 67.7086 272.437 66 275C65.01 275 64.02 275 63 275C64.1517 272.532 65.0478 270.952 67 269C67.6425 266.931 67.6425 266.931 68 265C67.186 265.325 67.186 265.325 66.3555 265.656C65.64 265.935 64.9246 266.213 64.1875 266.5C63.4798 266.778 62.7721 267.057 62.043 267.344C60 268 60 268 57 268C58.1517 265.532 59.0478 263.952 61 262C61.6425 259.931 61.6425 259.931 62 258C61.4689 258.205 60.9378 258.41 60.3906 258.621C59.331 259.025 59.331 259.025 58.25 259.438C57.2059 259.838 57.2059 259.838 56.1406 260.246C54.1094 260.961 52.0965 261.514 50 262C50 261.01 50 260.02 50 259C50.8314 258.59 51.6629 258.18 52.5195 257.758C53.6062 257.219 54.6929 256.68 55.8125 256.125C56.8914 255.591 57.9704 255.058 59.082 254.508C65.8705 251 65.8705 251 69 251Z" fill="#CF5340"/>
<path d="M177.953 26.4531C182.483 28.0246 186.765 29.7194 191 32C191 33.65 191 35.3 191 37C190.01 37 189.02 37 188 37C188 37.66 188 38.32 188 39C182.91 37.3387 177.867 35.6005 172.863 33.6953C170.265 32.7258 167.637 31.857 165 31C165.66 29.68 166.32 28.36 167 27C168.114 27.0206 169.227 27.0413 170.375 27.0625C173.287 27.0123 175.313 25.8406 177.953 26.4531Z" fill="#0D8815"/>
<path d="M260 63C264.062 62.9709 268.125 62.9532 272.188 62.9375C273.913 62.9249 273.913 62.9249 275.674 62.9121C276.786 62.9089 277.897 62.9057 279.043 62.9023C280.064 62.8971 281.085 62.8919 282.137 62.8865C284.896 62.9959 287.343 63.2492 290 64C290.33 64.66 290.66 65.32 291 66C293.527 66.6556 293.527 66.6556 296 67C295.34 67.33 294.68 67.66 294 68C294 68.66 294 69.32 294 70C293.149 69.8672 292.298 69.7345 291.422 69.5977C280.631 68.025 269.891 67.4202 259 67C259.33 65.68 259.66 64.36 260 63Z" fill="#007D05"/>
<path d="M52 231C54.0195 232.242 54.0195 232.242 55.8125 233.875C56.4171 234.409 57.0216 234.942 57.6445 235.492C59 237 59 237 59 239C59.66 239 60.32 239 61 239C61 240.65 61 242.3 61 244C60.34 244 59.68 244 59 244C58.7525 244.598 58.505 245.196 58.25 245.813C56.094 249.585 53.8202 250.716 49.75 252.125C44.8861 251.963 42.9043 250.382 39.5 247.031C38 245 38 245 37.5 241.5C40.087 235.464 44.9488 229.942 52 231ZM44.25 236.313C43.1363 237.643 43.1363 237.643 42 239C41.34 239.66 40.68 240.32 40 241C40.183 243.744 41.0319 245.042 42.6875 247.25C44.9116 249.211 44.9116 249.211 47.875 249.5C51.8745 248.86 53.968 247.679 57 245C57.9688 241.867 57.9688 241.867 58 239C53.4744 234.874 49.5075 231.891 44.25 236.313Z" fill="#CB574C"/>
<path d="M33 165C36.5106 166.755 38.4491 167.768 40.0625 171.375C39.9775 174.945 38.9546 177.034 37 180C34.8125 180.875 34.8125 180.875 33 181C33.3094 180.299 33.6187 179.597 33.9375 178.875C35.033 175.911 35.5642 173.123 36 170C32.9375 168.216 30.7792 167.771 27.25 167.875C26.0512 167.902 26.0512 167.902 24.8281 167.93C23.9232 167.964 23.9232 167.964 23 168C21.3306 171.027 21.3306 171.027 21.125 174.437C22.1891 177.554 23.8302 179.55 26 182C23.1875 181.812 23.1875 181.812 20 181C17.7191 178.351 16.9308 176.946 17.1875 173.437C18.2758 170.173 19.3028 167.809 21.5625 165.187C25.4373 163.3 28.9039 163.958 33 165Z" fill="#E0613D"/>
<path d="M109 285C110.32 285 111.64 285 113 285C112.847 285.664 112.693 286.328 112.535 287.012C111.892 290.602 111.65 294.178 111.438 297.812C111.394 298.505 111.351 299.198 111.307 299.912C111.201 301.608 111.1 303.304 111 305C110.34 305 109.68 305 109 305C107.35 302.03 105.7 299.06 104 296C100.957 296.609 97.9935 297.224 95 298C95 297.34 95 296.68 95 296C96.9281 294.42 98.8521 292.949 100.875 291.5C105.113 288.463 105.113 288.463 109 285Z" fill="#E16A47"/>
<path d="M151 298C151.99 298 152.98 298 154 298C154.481 300.208 154.96 302.416 155.438 304.625C155.704 305.855 155.971 307.085 156.246 308.352C156.909 311.56 157.487 314.764 158 318C156.125 317.875 156.125 317.875 154 317C152.75 313.938 152.75 313.938 152 311C149.626 310.749 149.626 310.749 147 311C145.375 312.458 145.375 312.458 144 314C143.01 314 142.02 314 141 314C142.503 310.585 144.573 307.739 146.77 304.75C148.149 302.854 148.149 302.854 149.625 300.062C150.079 299.382 150.532 298.701 151 298Z" fill="#DE9A7F"/>
<path d="M198 297C198 297.66 198 298.32 198 299C199.32 299.66 200.64 300.32 202 301C198.166 302.38 194.958 301.565 191 301C188.678 301.347 188.678 301.347 187 302C186.416 307.967 186.416 307.967 189.25 313.062C191.712 315.175 191.712 315.175 194 315.062C196.6 313.681 198.723 311.858 201 310C201.66 310 202.32 310 203 310C202.875 311.75 202.875 311.75 202 314C199.049 316.471 196.758 317.826 193 318.687C189.087 317.791 187.602 316.15 185.223 312.996C183.219 309.726 182.588 307.848 183 304C187.114 298.497 191.193 296.007 198 297Z" fill="#C73A23"/>
<path d="M77 175C81.875 178.75 81.875 178.75 83 181C83.66 181 84.32 181 85 181C85.33 181.99 85.66 182.98 86 184C87.4541 184.835 87.4541 184.835 88.9375 185.688C92.6172 188.466 92.6714 189.735 93.4336 194.027C94.3474 197.21 96.5336 198.923 99 201C95.5306 200.542 92.326 200.109 89 199C87.1973 195.584 86.7811 192.831 87 189C86.34 189 85.68 189 85 189C84.6287 188.041 84.6287 188.041 84.25 187.062C83.8375 186.382 83.425 185.701 83 185C82.34 184.856 81.68 184.711 81 184.562C80.34 184.377 79.68 184.191 79 184C77.2172 180.702 77 178.823 77 175Z" fill="#FE7720"/>
<path d="M173 298C175.375 299.5 175.375 299.5 177 301C176.67 301.66 176.34 302.32 176 303C175.423 302.67 174.845 302.34 174.25 302C171.801 300.729 171.801 300.729 168 301C168 302.32 168 303.64 168 305C170.432 307.035 170.432 307.035 173.5 308.75C174.521 309.364 175.542 309.977 176.594 310.609C177.388 311.068 178.182 311.527 179 312C178.466 314.511 178.179 315.8 176.438 317.75C172.781 319.625 170.091 319.33 166 319C165.34 318.34 164.68 317.68 164 317C164 315.68 164 314.36 164 313C164.516 313.309 165.031 313.619 165.562 313.938C168.667 315.291 171.651 315.614 175 316C175 314.68 175 313.36 175 312C174.299 311.753 173.598 311.505 172.875 311.25C169.513 309.788 166.82 308.361 164 306C163.438 302.875 163.438 302.875 164 300C167.489 297.674 168.897 297.581 173 298Z" fill="#C34027"/>
<path d="M211 294C215.011 295.547 216.988 298.117 219.625 301.438C220.401 302.406 221.177 303.374 221.977 304.371C223.383 306.199 224.721 308.081 226 310C223.133 309.427 222.139 309.139 220 307C217.429 306.352 217.429 306.352 215 306C214.598 307.145 214.598 307.145 214.188 308.312C213.039 310.912 212.031 312.102 210 314C209.973 311.792 209.954 309.583 209.938 307.375C209.926 306.145 209.914 304.915 209.902 303.648C209.991 300.323 210.363 297.26 211 294Z" fill="#E17647"/>
<path d="M285 70C293.531 69.5804 301.404 70.9273 309 75C309 75.66 309 76.32 309 77C307.542 77.0558 306.084 77.0936 304.625 77.125C303.813 77.1482 303.001 77.1714 302.164 77.1953C299.433 77.0267 297.095 76.6196 294.438 76.0312C288.433 74.7676 282.494 74.5534 276.375 74.375C274.726 74.317 274.726 74.317 273.043 74.2578C270.362 74.1646 267.681 74.0788 265 74C265 73.67 265 73.34 265 73C272.26 73 279.52 73 287 73C287 72.34 287 71.68 287 71C286.34 70.67 285.68 70.34 285 70Z" fill="#B7CFB2"/>
<path d="M285 63C291.643 62.7043 296.622 63.4596 302.812 65.8125C303.549 66.0735 304.286 66.3346 305.045 66.6035C308.799 67.9768 311.949 69.3333 315 72C311.305 73.2318 308.813 72.5547 305 72C304.01 72.495 304.01 72.495 303 73C300.836 72.6602 300.836 72.6602 298.375 72.0625C297.558 71.8679 296.74 71.6732 295.898 71.4727C295.272 71.3167 294.645 71.1607 294 71C294 70.01 294 69.02 294 68C292.68 67.34 291.36 66.68 290 66C290 65.34 290 64.68 290 64C288.35 64 286.7 64 285 64C285 63.67 285 63.34 285 63Z" fill="#088310"/>
<path d="M230 253C230.33 253 230.66 253 231 253C231.392 256.434 231.241 257.679 229.125 260.5C228.424 261.325 227.723 262.15 227 263C226.283 264.646 225.617 266.314 225 268C222.899 273.231 220.753 275.219 215.812 277.875C214.182 278.768 214.182 278.768 212.52 279.68C211.688 280.115 210.857 280.551 210 281C211.42 277.259 213.098 273.769 215 270.25C215.516 269.286 216.031 268.322 216.562 267.328C218 265 218 265 220 264C219.67 265.32 219.34 266.64 219 268C219.99 268 220.98 268 222 268C222 267.34 222 266.68 222 266C222.66 266 223.32 266 224 266C224.33 263.69 224.66 261.38 225 259C225.99 258.67 226.98 258.34 228 258C229.219 255.496 229.219 255.496 230 253Z" fill="#FE7A00"/>
<path d="M200 193C208.827 194.159 217.687 205.404 223 212C223.825 212.908 224.65 213.815 225.5 214.75C227 217 227 217 226.75 219.312C226.502 219.869 226.255 220.426 226 221C225.34 221 224.68 221 224 221C224 219.35 224 217.7 224 216C223.268 215.769 222.536 215.539 221.781 215.301C218.471 213.753 216.861 211.96 214.5 209.188C212.134 206.458 209.805 203.805 207.25 201.25C204.633 198.633 202.335 195.869 200 193Z" fill="#FB680C"/>
<path d="M228 182C228.66 182 229.32 182 230 182C231.246 185.187 232.48 188.379 233.695 191.578C234.418 193.472 235.151 195.363 235.93 197.234C240.056 207.868 240.364 220.73 240 232C239.01 232.495 239.01 232.495 238 233C237.996 231.72 237.996 231.72 237.992 230.414C237.707 221.186 236.222 212.555 234.125 203.562C233.74 201.911 233.74 201.911 233.347 200.227C231.853 194.03 230.112 188.015 228 182Z" fill="#F05521"/>
<path d="M167 101C167.33 101.66 167.66 102.32 168 103C167.67 103.66 167.34 104.32 167 105C167.061 107.083 167.061 107.083 167.375 109.375C167.465 110.146 167.555 110.917 167.648 111.711C167.978 113.855 168.436 115.907 169 118C169.99 117.67 170.98 117.34 172 117C172.124 118.299 172.124 118.299 172.25 119.625C173.491 125.212 176.114 128.55 180.75 131.75C181.822 132.493 182.895 133.235 184 134C184 134.66 184 135.32 184 136C185.485 136.495 185.485 136.495 187 137C187 137.99 187 138.98 187 140C178.513 136.333 172.546 127.751 168 120C167.586 119.308 167.172 118.616 166.746 117.902C164.312 113.5 163.309 110.134 164 105C165.5 102.562 165.5 102.562 167 101Z" fill="#F27222"/>
<path d="M26.2305 140.926C27.0329 140.981 27.8354 141.035 28.6621 141.092C29.4955 141.165 30.3289 141.237 31.1875 141.312C32.455 141.404 32.455 141.404 33.748 141.498C35.8331 141.651 37.9168 141.824 40 142C40.66 143.32 41.32 144.64 42 146C40.1554 145.93 40.1554 145.93 38.2734 145.859C36.6406 145.822 35.0078 145.785 33.375 145.75C32.5668 145.716 31.7585 145.683 30.9258 145.648C25.2814 145.557 22.3791 146.4 18 150C18.6091 144.518 18.6091 144.518 20.2786 142.305C22.4698 140.644 23.5176 140.714 26.2305 140.926Z" fill="#EB7352"/>
<path d="M64 167C66.875 166.812 66.875 166.812 70 167C70.66 167.99 71.32 168.98 72 170C71.175 170.268 70.35 170.536 69.5 170.812C66.7803 172.725 66.7803 172.725 66.5977 175.438C66.5351 180.553 66.7247 185.33 69 190C69.99 190.66 70.98 191.32 72 192C72.6875 194.625 72.6875 194.625 73 197C68.5391 193.958 65.7196 191.55 64.5625 186.125C64.3476 184.754 64.1502 183.38 64 182C63.67 182 63.34 182 63 182C63 178.04 63 174.08 63 170C63.66 170 64.32 170 65 170C64.67 169.01 64.34 168.02 64 167Z" fill="#FC7B25"/>
<path d="M143 142C145.689 142.358 146.755 142.708 148.527 144.82C148.993 145.581 149.458 146.341 149.938 147.125C151.798 150.1 153.686 152.959 155.812 155.75C157.815 158.725 158.68 160.484 159 164C156 163 156 163 154 161C153.67 160.34 153.34 159.68 153 159C152.34 159 151.68 159 151 159C149.387 157.793 149.387 157.793 148 156C147.707 153.738 147.707 153.738 147.812 151.312C147.853 150.1 147.853 150.1 147.895 148.863C147.947 147.941 147.947 147.941 148 147C146.68 147.33 145.36 147.66 144 148C143.67 146.02 143.34 144.04 143 142Z" fill="#EE4C0E"/>
<path d="M281 166C281.33 166 281.66 166 282 166C282.828 185.465 282.38 203.48 273 221C272.67 221 272.34 221 272 221C272 219.35 272 217.7 272 216C272.66 216 273.32 216 274 216C274 214.35 274 212.7 274 211C274.66 211 275.32 211 276 211C275.979 209.866 275.959 208.731 275.938 207.562C276 204 276 204 277 203C280.071 190.784 280.669 178.541 281 166Z" fill="#FAB649"/>
<path d="M190 48C195.013 50.7492 199.759 54.1652 204 58C204 58.66 204 59.32 204 60C204.619 60.2475 205.238 60.495 205.875 60.75C208.351 62.2063 208.951 63.3781 210 66C205.286 65.5206 201.334 65.0317 197 63C197.495 62.5462 197.99 62.0925 198.5 61.625C200.226 60.1236 200.226 60.1236 200 58C199.01 57.67 198.02 57.34 197 57C195.667 55.3333 194.333 53.6667 193 52C192.01 51.67 191.02 51.34 190 51C190 50.01 190 49.02 190 48Z" fill="#0E7217"/>
<path d="M105 202C108.857 203.851 112.544 205.993 116.25 208.125C116.9 208.498 117.549 208.87 118.219 209.254C119.813 210.168 121.407 211.084 123 212C119.589 213.097 116.793 212.942 113.25 212.562C112.265 212.461 111.28 212.359 110.266 212.254C109.518 212.17 108.77 212.086 108 212C107.67 210.68 107.34 209.36 107 208C106.34 208 105.68 208 105 208C104.618 206.344 104.286 204.675 104 203C104.33 202.67 104.66 202.34 105 202Z" fill="#F94F11"/>
<path d="M61 160C61.33 160 61.66 160 62 160C61.9278 160.972 61.8556 161.944 61.7813 162.945C60.9514 174.97 60.8907 186.95 61 199C57.5201 192.504 57.7846 186.429 57.75 179.188C57.7294 178.12 57.7088 177.052 57.6875 175.951C57.6572 169.831 58.0678 165.409 61 160Z" fill="#F49E53"/>
<path d="M263.805 73.9024C264.891 73.9045 264.891 73.9045 265.999 73.9066C268.291 73.9122 270.583 73.9247 272.875 73.9375C274.437 73.9425 276 73.9471 277.562 73.9512C281.375 73.9622 285.188 73.9794 289 74C289 74.33 289 74.66 289 75C288.145 75.0146 287.289 75.0292 286.408 75.0442C263.922 74.8795 263.922 74.8795 242 79C241.67 79.66 241.34 80.32 241 81C241.66 81.33 242.32 81.66 243 82C241.35 81.67 239.7 81.34 238 81C237.67 80.01 237.34 79.02 237 78C239.041 77.5185 241.083 77.0399 243.125 76.5625C244.262 76.2957 245.399 76.0288 246.57 75.7539C252.383 74.4762 257.854 73.8579 263.805 73.9024Z" fill="#3D8C4B"/>
<path d="M132 293C132.66 293 133.32 293 134 293C133.499 298.013 132.322 301.558 130 306C129.659 309.246 129.659 309.246 132.5 311.688C133.325 312.451 134.15 313.214 135 314C128.25 313.25 128.25 313.25 126 311C125.469 306.722 126.745 303.644 128.437 299.75C128.89 298.693 129.342 297.636 129.809 296.547C131 294 131 294 132 293Z" fill="#D04827"/>
<path d="M77 260C75.5791 263.176 73.8359 265.494 71.5 268.063C69.4418 270.334 67.7086 272.437 66 275C65.01 275 64.02 275 63 275C64.1517 272.532 65.0478 270.952 67 269C67.6425 266.931 67.6425 266.931 68 265C67.01 264.67 66.02 264.34 65 264C72.2857 259.429 72.2857 259.429 77 260Z" fill="#CE5B48"/>
<path d="M25 165C29.6959 164.676 32.1631 164.589 36.4375 166.688C39 169 39 169 40.0625 171.375C39.9775 174.945 38.9546 177.034 37 180C34.8125 180.875 34.8125 180.875 33 181C33.3094 180.299 33.6188 179.598 33.9375 178.875C35.033 175.911 35.5642 173.123 36 170C32.4946 168.037 28.8665 167.041 25 166C25 165.67 25 165.34 25 165Z" fill="#E4754C"/>
<path d="M109 285C110.32 285 111.64 285 113 285C112.453 288.375 111.945 290.082 110 293C110 291.68 110 290.36 110 289C107.968 289.64 107.968 289.64 106 291C105.188 293.555 105.188 293.555 105 296C104.216 295.959 103.433 295.918 102.625 295.875C99.8388 295.713 99.8388 295.713 98 298C97.01 298 96.02 298 95 298C95 297.34 95 296.68 95 296C96.9281 294.42 98.8521 292.949 100.875 291.5C105.113 288.463 105.113 288.463 109 285Z" fill="#C94636"/>
<path d="M98 278C98.99 278 99.98 278 101 278C101 278.66 101 279.32 101 280C100.299 280.516 99.5975 281.031 98.875 281.562C95.5265 284.401 93.6629 287.43 91.4297 291.172C90.9579 291.775 90.4861 292.378 90 293C89.01 293 88.02 293 87 293C87.5568 289.659 88.0881 286.822 90 284C91.9615 282.611 93.9617 281.274 96 280C96.66 279.34 97.32 278.68 98 278Z" fill="#C95640"/>
<path d="M142 30C149.59 30 157.18 30 165 30C159.638 34.2896 159.284 34.4964 153 33.8125C151.804 33.6952 150.607 33.5779 149.375 33.457C146.548 33.0742 143.786 32.6068 141 32C141.33 31.34 141.66 30.68 142 30Z" fill="#CAEDCA"/>
<path d="M211 294C212.938 294.75 212.938 294.75 215 296C215.75 298.125 215.75 298.125 216 300C214.68 300 213.36 300 212 300C212 301.98 212 303.96 212 306C212.66 306 213.32 306 214 306C213.49 309.776 212.792 311.447 210 314C209.973 311.792 209.954 309.583 209.938 307.375C209.926 306.145 209.914 304.915 209.902 303.648C209.991 300.323 210.363 297.26 211 294Z" fill="#C93818"/>
<path d="M207 47C211.257 50.2897 214.308 53.2376 217 58C217 58.99 217 59.98 217 61C212.775 59.0138 208.972 56.6587 206 53C206.062 49.625 206.062 49.625 207 47Z" fill="#106C18"/>
<path d="M121 211C123.918 211.282 126.834 211.575 129.75 211.875C130.575 211.954 131.4 212.032 132.25 212.113C133.049 212.197 133.848 212.281 134.672 212.367C135.405 212.441 136.138 212.514 136.894 212.589C139 213 139 213 143 215C140.03 215 137.06 215 134 215C136.31 215.33 138.62 215.66 141 216C137.697 218.04 135.876 218.115 132.125 217.25C131.254 217.051 130.382 216.853 129.484 216.648C126.604 215.897 123.793 215.029 121 214C121 213.01 121 212.02 121 211Z" fill="#FD8D2A"/>
<path d="M151.625 27.75C152.752 27.7448 153.878 27.7397 155.039 27.7344C158 28 158 28 161 30C151.595 30.495 151.595 30.495 142 31C146.29 31.66 150.58 32.32 155 33C155 33.33 155 33.66 155 34C150.05 34 145.1 34 140 34C140 32.68 140 31.36 140 30C143.998 28.1135 147.221 27.7298 151.625 27.75Z" fill="#24A532"/>
<path d="M180 228C184.503 228.511 186.875 230.175 190.312 233.062C191.196 233.796 192.079 234.529 192.988 235.285C193.652 235.851 194.316 236.417 195 237C194.67 237.99 194.34 238.98 194 240C193.34 239.34 192.68 238.68 192 238C191.051 237.711 190.103 237.423 189.125 237.125C185.769 235.917 184.355 234.607 182 232C181.34 231.67 180.68 231.34 180 231C180 230.01 180 229.02 180 228Z" fill="#FC5409"/>
<path d="M97 102C95.3921 105.982 92.6196 108.713 89.625 111.688C89.1429 112.186 88.6608 112.684 88.1641 113.197C85.6068 115.758 83.6895 117.624 80 118C91.234 102 91.234 102 97 102Z" fill="#F27F23"/>
<path d="M58 239C58.99 239 59.98 239 61 239C61 240.65 61 242.3 61 244C60.34 244 59.68 244 59 244C58.7525 244.598 58.505 245.196 58.25 245.812C56.7517 248.435 55.6308 249.507 53 251C49.375 251.812 49.375 251.812 46 252C45.34 251.34 44.68 250.68 44 250C44.7593 249.792 45.5185 249.585 46.3008 249.371C52.0051 247.819 52.0051 247.819 56.3984 244.176C57.3151 242.07 57.3151 242.07 58 239Z" fill="#D55844"/>
<path d="M151 298C151.66 298 152.32 298 153 298C152.688 300.375 152.688 300.375 152 303C151.01 303.66 150.02 304.32 149 305C149.33 306.65 149.66 308.3 150 310C147.028 311.899 144.485 313.355 141 314C142.502 310.585 144.573 307.742 146.766 304.75C148.148 302.848 148.148 302.848 149.688 300.062C150.337 299.042 150.337 299.042 151 298Z" fill="#BD321E"/>
<path d="M85 266C85 266.66 85 267.32 85 268C83.7934 268.959 83.7934 268.959 82.5625 269.938C79.7628 271.81 79.7628 271.81 79 275C77.4766 276.641 77.4766 276.641 75.625 278.25C75.0191 278.791 74.4133 279.333 73.7891 279.891C73.1987 280.257 72.6083 280.623 72 281C71.01 280.67 70.02 280.34 69 280C81.0102 266 81.0102 266 85 266Z" fill="#C86B5E"/>
<path d="M178 312C178.33 312.99 178.66 313.98 179 315C176.034 317.966 173.97 319.299 169.812 319.375C166 319 166 319 164 317C164 315.68 164 314.36 164 313C164.516 313.309 165.031 313.619 165.562 313.938C168.667 315.291 171.651 315.614 175 316C175 315.01 175 314.02 175 313C175.99 312.67 176.98 312.34 178 312Z" fill="#CD6145"/>
<path d="M214 221C214.99 221 215.98 221 217 221C222.304 231.892 223.31 240.881 223 253C222.67 253 222.34 253 222 253C221.944 251.875 221.944 251.875 221.887 250.727C221.193 239.928 218.159 230.921 214 221Z" fill="#F36C22"/>
<path d="M203 310C202.875 311.75 202.875 311.75 202 314C198.97 316.537 196.778 317.86 192.875 318.562C190 318 190 318 187.625 315.5C186.821 314.263 186.821 314.263 186 313C186.99 312.67 187.98 312.34 189 312C189.412 312.516 189.825 313.031 190.25 313.562C191.864 315.211 191.864 315.211 193.875 314.938C197.177 313.481 199.381 310 203 310Z" fill="#D35B38"/>
<path d="M88 273C88.66 273 89.32 273 90 273C89.5818 277.879 87.5507 279.78 84 283C83.2987 283.763 82.5975 284.526 81.875 285.312C80 287 80 287 77 287C77 285 77 285 79.125 282.812C79.5775 282.382 80.0299 281.951 80.4961 281.508C82.7286 279.269 84.6823 276.813 86.668 274.355C87.1075 273.908 87.5471 273.461 88 273Z" fill="#C7291A"/>
<path d="M217 266C217.33 266 217.66 266 218 266C218.125 271.75 218.125 271.75 217 274C218.98 273.34 220.96 272.68 223 272C219.393 276.234 214.854 278.469 210 281C211.366 277.458 212.909 274.074 214.625 270.688C215.294 269.363 215.294 269.363 215.977 268.012C216.314 267.348 216.652 266.684 217 266Z" fill="#F87D31"/>
<path d="M46 223C48.0625 223.438 48.0625 223.438 50 224C49.01 224.33 48.02 224.66 47 225C47 225.66 47 226.32 47 227C46.4315 227.026 45.863 227.052 45.2773 227.078C39.475 227.504 35.8543 228.798 31 232C31.125 230.25 31.125 230.25 32 228C36.3893 224.238 39.3105 223.665 45 224C45.33 223.67 45.66 223.34 46 223Z" fill="#CC5D50"/>
<path d="M96 201C96.99 201 97.98 201 99 201C99.33 201.66 99.66 202.32 100 203C102.527 203.656 102.527 203.656 105 204C105 205.32 105 206.64 105 208C105.66 208 106.32 208 107 208C107.33 209.32 107.66 210.64 108 212C104.37 212 100.74 212 97 212C97 211.67 97 211.34 97 211C100.465 210.505 100.465 210.505 104 210C103.01 209.34 102.02 208.68 101 208C101 207.01 101 206.02 101 205C99.35 204.67 97.7 204.34 96 204C96 203.01 96 202.02 96 201Z" fill="#FC612D"/>
<path d="M200 193C204.066 193.55 206.216 195.662 209.188 198.375C210.068 199.166 210.948 199.958 211.855 200.773C214 203 214 203 215 206C208.351 205.261 204.038 197.815 200 193Z" fill="#FD5905"/>
<path d="M270 221C270.66 221 271.32 221 272 221C271.425 225.53 269.645 228.646 267.25 232.5C266.575 233.603 265.899 234.707 265.203 235.844C263.001 238.999 260.793 241.383 258 244C258 243.01 258 242.02 258 241C258.66 241 259.32 241 260 241C260.33 239.68 260.66 238.36 261 237C261.66 237 262.32 237 263 237C263.062 236.34 263.124 235.68 263.188 235C264.152 231.439 265.806 228.912 267.844 225.867C269.162 223.899 269.162 223.899 270 221Z" fill="#F1841F"/>
<path d="M19 155C25.4169 154.896 31.6269 155.255 38 156C38 156.66 38 157.32 38 158C31.73 158 25.46 158 19 158C19 157.01 19 156.02 19 155Z" fill="#D96437"/>
<path d="M76 123C77.2678 126.853 77.0762 130.685 77 134.688C76.9543 137.132 76.9528 139.554 77 142C77.33 142.33 77.66 142.66 78 143C78.0406 144.666 78.0427 146.334 78 148C74.757 144.757 74.0643 141.886 73.7344 137.336C73.7395 136.029 73.7447 134.722 73.75 133.375C73.7448 132.063 73.7397 130.75 73.7344 129.398C74 126 74 126 76 123Z" fill="#ED973A"/>
<path d="M128 86C130.562 88.0625 130.562 88.0625 132 90C131.67 90.66 131.34 91.32 131 92C130.01 91.67 129.02 91.34 128 91C128 90.01 128 89.02 128 88C122.539 87.9025 117.407 88.2275 112 89C113 87 113 87 115.5 85.8125C119.897 84.7918 123.634 84.8154 128 86Z" fill="#FDA126"/>
<path d="M70 226C70.66 226 71.32 226 72 226C72.33 227.32 72.66 228.64 73 230C73.66 230 74.32 230 75 230C78 235.75 78 235.75 78 238C78.66 238 79.32 238 80 238C80 238.99 80 239.98 80 241C80.99 241.33 81.98 241.66 83 242C84.1875 245.062 84.1875 245.062 85 248C78.8112 242.374 74.0601 235.284 70 228C70 227.34 70 226.68 70 226Z" fill="#EB8A1E"/>
<path d="M175 194C176.458 193.946 177.916 193.907 179.375 193.875C180.187 193.852 180.999 193.829 181.836 193.805C184 194 184 194 186 196C188.824 197.341 191.691 198.555 194.566 199.781C197 201 197 201 198 203C193.651 202.332 189.959 200.822 185.938 199.062C184.73 198.538 183.522 198.013 182.277 197.473C179.817 196.367 177.396 195.237 175 194Z" fill="#F5681F"/>
<path d="M181 177C182.799 178.071 184.589 179.157 186.375 180.25C187.373 180.853 188.37 181.457 189.398 182.078C191.951 183.964 192.925 185.072 194 188C191.25 187.812 191.25 187.812 188 187C185.875 184.562 185.875 184.562 184 182C181.883 180.688 181.883 180.688 180 180C180.33 179.01 180.66 178.02 181 177Z" fill="#FD5B0A"/>
<path d="M304 71C307.63 71.33 311.26 71.66 315 72C315.33 73.32 315.66 74.64 316 76C316.99 76.33 317.98 76.66 319 77C319 77.66 319 78.32 319 79C316.525 78.01 316.525 78.01 314 77C314 76.34 314 75.68 314 75C311.03 74.67 308.06 74.34 305 74C304.67 73.01 304.34 72.02 304 71Z" fill="#078D09"/>
<path d="M237 9.00001C237.66 9.66001 238.32 10.32 239 11C238.34 11 237.68 11 237 11C236.67 11.66 236.34 12.32 236 13C236 12.34 236 11.68 236 11C231.279 12.5427 226.583 14.078 222 16C223.748 11.7421 225.91 10.568 229.965 8.69141C232.675 7.77052 234.363 7.91401 237 9.00001Z" fill="#756A59"/>
<path d="M61 200C62.485 200.99 62.485 200.99 64 202C64.2343 203.874 64.4586 205.751 64.6172 207.633C65.2091 211.293 66.6879 214.514 68.1602 217.898C69 220 69 220 69 222C69.66 222.33 70.32 222.66 71 223C70.34 223.99 69.68 224.98 69 226C67.8391 223.36 66.6964 220.714 65.5625 218.062C65.237 217.327 64.9115 216.592 64.5762 215.834C62.3141 210.494 61.4081 205.788 61 200Z" fill="#EF8D24"/>
<path d="M242 78C245.63 78 249.26 78 253 78C252.67 79.32 252.34 80.64 252 82C250.542 82.027 249.083 82.0464 247.625 82.0625C246.813 82.0741 246.001 82.0857 245.164 82.0977C243 82 243 82 241 81C241.33 80.01 241.66 79.02 242 78Z" fill="#007A0F"/>
<path d="M129 278C133.648 278.746 138.262 279.628 142.875 280.562C143.563 280.701 144.252 280.84 144.961 280.982C146.641 281.321 148.32 281.66 150 282C150 282.66 150 283.32 150 284C150.99 284.33 151.98 284.66 153 285C147.201 284.432 142.023 283.263 136.5 281.438C135.773 281.204 135.046 280.97 134.297 280.729C132.529 280.159 130.764 279.58 129 279C129 278.67 129 278.34 129 278Z" fill="#F7A735"/>
<path d="M228 43C228.33 43 228.66 43 229 43C229.087 46.3957 229.141 49.791 229.188 53.1875C229.225 54.6271 229.225 54.6271 229.264 56.0957C229.358 65.2027 229.358 65.2027 226 69C225.34 69 224.68 69 224 69C224.205 68.2124 224.41 67.4248 224.621 66.6133C226.572 58.7263 227.615 51.1116 228 43Z" fill="#906F49"/>
<path d="M31 142C33.97 142 36.94 142 40 142C40.66 143.32 41.32 144.64 42 146C35.8851 146.097 30.067 145.77 24 145C24 144.67 24 144.34 24 144C27.465 143.505 27.465 143.505 31 143C31 142.67 31 142.34 31 142Z" fill="#E88B72"/>
<path d="M285 63C291.717 62.6801 296.757 63.5206 303 66C303 66.33 303 66.66 303 67C299.04 67 295.08 67 291 67C290.67 66.01 290.34 65.02 290 64C288.35 64 286.7 64 285 64C285 63.67 285 63.34 285 63Z" fill="#197F26"/>
<path d="M89 192C96.4829 197.002 96.4829 197.002 99 201C95.5306 200.542 92.326 200.109 89 199C89 196.69 89 194.38 89 192Z" fill="#FC7126"/>
<path d="M202 42C203.98 43.32 205.96 44.64 208 46C207.34 47.98 206.68 49.96 206 52C203.69 50.35 201.38 48.7 199 47C199.99 46.01 200.98 45.02 202 44C202 43.34 202 42.68 202 42Z" fill="#147118"/>
<path d="M198 39C199.938 39.75 199.938 39.75 202 41C202.75 43.125 202.75 43.125 203 45C200.75 45.6875 200.75 45.6875 198 46C195.688 44.6875 195.688 44.6875 194 43C194 42.34 194 41.68 194 41C194.99 41 195.98 41 197 41C197.33 40.34 197.66 39.68 198 39Z" fill="#07720C"/>
<path d="M307.938 68.1875C310.997 68.9993 312.654 69.9248 315 72C311.305 73.2318 308.813 72.5547 305 72C304.01 72.495 304.01 72.495 303 73C301.323 72.7206 299.654 72.3917 298 72C298.897 71.5669 298.897 71.5669 299.812 71.125C305.791 68.0505 305.791 68.0505 307.938 68.1875Z" fill="#18861F"/>
<path d="M194.625 296.875C196.296 296.937 196.296 296.937 198 297C198 297.66 198 298.32 198 299C199.32 299.66 200.64 300.32 202 301C198.571 302.188 196.622 301.802 193.25 300.562C192.451 300.275 191.652 299.988 190.828 299.691C190.225 299.463 189.622 299.235 189 299C191 297 191 297 194.625 296.875Z" fill="#DC5833"/>
<path d="M199 247C199.66 247 200.32 247 201 247C203.213 251.425 202.29 256.965 201 261.562C200.67 262.367 200.34 263.171 200 264C199.34 263.34 198.68 262.68 198 262C198.023 259.031 198.023 259.031 198.375 255.5C198.486 254.335 198.597 253.169 198.711 251.969C198.854 250.499 198.854 250.499 199 249C199 248.34 199 247.68 199 247Z" fill="#ED6616"/>
<path d="M179 88C177.552 91.4443 175.723 93.3613 172.875 95.75C171.788 96.6704 171.788 96.6704 170.68 97.6094C170.125 98.0683 169.571 98.5272 169 99C169 95.4546 169.594 94.9399 171.875 92.375C172.409 91.764 172.942 91.153 173.492 90.5234C175.341 88.6558 176.352 88 179 88Z" fill="#F57E24"/>
<path d="M93 189C96.0917 191.53 96.9093 194.225 98 198C98.99 198 99.98 198 101 198C100.67 198.66 100.34 199.32 100 200C97.6875 199.938 97.6875 199.938 95 199C93.125 195.625 93.125 195.625 92 192C92.33 191.01 92.66 190.02 93 189Z" fill="#F76A09"/>
<path d="M256 63C255.67 63.99 255.34 64.98 255 66C252.199 66.9844 252.199 66.9844 248.688 67.75C247.536 68.013 246.385 68.2759 245.199 68.5469C242.305 68.9568 240.699 68.9862 238 68C240.247 67.1588 242.497 66.3269 244.75 65.5C245.384 65.2615 246.018 65.023 246.672 64.7773C250.033 63.552 252.369 63 256 63Z" fill="#449350"/>
<path d="M237 11C238.32 11.33 239.64 11.66 241 12C241.043 13.6661 241.041 15.3338 241 17C240 18 240 18 237.438 18.0625C236.231 18.0316 236.231 18.0316 235 18C235.875 13.25 235.875 13.25 237 11Z" fill="#492107"/>
<path d="M153 306C156.039 309.039 156.443 309.734 157.188 313.688C157.346 314.496 157.505 315.304 157.668 316.137C157.778 316.752 157.887 317.366 158 318C156.68 317.67 155.36 317.34 154 317C153.67 313.37 153.34 309.74 153 306Z" fill="#D85C30"/>
<path d="M173 298C175.375 299.5 175.375 299.5 177 301C176.67 301.66 176.34 302.32 176 303C175.423 302.67 174.845 302.34 174.25 302C171.801 300.729 171.801 300.729 168 301C167.01 302.485 167.01 302.485 166 304C166 303.34 166 302.68 166 302C165.34 302 164.68 302 164 302C164 301.34 164 300.68 164 300C167.489 297.674 168.897 297.581 173 298Z" fill="#D16849"/>
<path d="M238 182C242.497 185.655 246.628 189.259 250 194C249.67 194.99 249.34 195.98 249 197C248.374 196.218 247.747 195.435 247.102 194.629C245.876 193.111 245.876 193.111 244.625 191.562C243.813 190.553 243.001 189.544 242.164 188.504C240.25 185.965 240.25 185.965 238 185C238 184.01 238 183.02 238 182Z" fill="#FC5700"/>
<path d="M65 181C67 184 67 184 67.9375 187.062C68.7712 190.276 68.7712 190.276 72 192C72.6875 194.625 72.6875 194.625 73 197C71.8507 196.046 70.7057 195.086 69.5625 194.125C68.9244 193.591 68.2863 193.058 67.6289 192.508C65.6958 190.718 65.035 189.696 64.9023 187.055C64.9349 185.036 64.9674 183.018 65 181Z" fill="#F87C15"/>
<path d="M132 26C136.819 25.7649 140.463 26.5482 145 28C141.466 30.1205 138.056 30.532 134 31C133.67 30.01 133.34 29.02 133 28C132.67 27.34 132.34 26.68 132 26Z" fill="#009110"/>
<path d="M160 189C164.78 188.809 168.605 189.012 173 191C173.33 191.99 173.66 192.98 174 194C171.852 193.552 169.707 193.091 167.562 192.625C165.77 192.242 165.77 192.242 163.941 191.852C162.485 191.43 162.485 191.43 161 191C160.67 190.34 160.34 189.68 160 189Z" fill="#F4651F"/>
<path d="M309 75C310.32 75.33 311.64 75.66 313 76C313 76.66 313 77.32 313 78C309.715 79.0951 307.263 79.0996 303.812 79.0625C302.182 79.049 302.182 79.049 300.52 79.0352C299.688 79.0236 298.857 79.012 298 79C298.33 78.34 298.66 77.68 299 77C302.3 77 305.6 77 309 77C309 76.34 309 75.68 309 75Z" fill="#1AA030"/>
<path d="M90 271C90.66 271 91.32 271 92 271C92.1193 278.822 92.1193 278.822 89.375 281.711C87.4375 283.062 87.4375 283.062 84 285C83.34 284.67 82.68 284.34 82 284C83.2897 282.624 84.6269 281.292 86 280C86.66 280 87.32 280 88 280C88.1444 278.701 88.2887 277.401 88.4375 276.062C88.875 272.125 88.875 272.125 90 271Z" fill="#F1B5A4"/>
<path d="M63 158C65.5 157.562 65.5 157.562 69 158C71.9153 160.085 74.4622 162.475 77 165C76.01 165.33 75.02 165.66 74 166C72.9791 164.793 72.9791 164.793 71.9375 163.562C68.5152 160.577 66.4572 160.262 62 160C62.33 159.34 62.66 158.68 63 158Z" fill="#E26521"/>
<path d="M187 140C191 140 191 140 193.562 142.312C194.367 143.199 195.171 144.086 196 145C196.598 145.598 197.196 146.196 197.812 146.812C198.204 147.204 198.596 147.596 199 148C198.01 148.495 198.01 148.495 197 149C195.704 148.069 194.413 147.13 193.125 146.188C192.406 145.665 191.686 145.143 190.945 144.605C189 143 189 143 187 140Z" fill="#EE732D"/>
<path d="M110 289C109.67 291.31 109.34 293.62 109 296C107.68 296 106.36 296 105 296C104.812 293.625 104.812 293.625 105 291C108 289 108 289 110 289Z" fill="#FCD7C2"/>
<path d="M90 285C90.66 285 91.32 285 92 285C92.125 287.875 92.125 287.875 92 291C91.34 291.66 90.68 292.32 90 293C89.01 293 88.02 293 87 293C87.5472 289.625 88.0549 287.918 90 285Z" fill="#DA3C28"/>
<path d="M245 83C249.29 83.33 253.58 83.66 258 84C258.33 84.99 258.66 85.98 259 87C259.66 87.33 260.32 87.66 261 88C255.473 87.2728 250.3 85.6655 245 84C245 83.67 245 83.34 245 83Z" fill="#3E9E56"/>
<path d="M303 73C304.98 73.66 306.96 74.32 309 75C309 75.66 309 76.32 309 77C298.442 77.1845 298.442 77.1845 294 76C294 75.67 294 75.34 294 75C301.75 74.875 301.75 74.875 304 76C303.67 75.01 303.34 74.02 303 73Z" fill="#72C875"/>
<path d="M62 261C62.99 262.32 63.98 263.64 65 265C60.375 268 60.375 268 57 268C58.293 265.116 59.6594 263.128 62 261Z" fill="#C23E2F"/>
<path d="M42 214C44.3125 213.688 44.3125 213.688 47 214C49.6356 217.272 50 218.721 50 223C49.34 223 48.68 223 48 223C47.7525 222.196 47.505 221.391 47.25 220.562C46.2776 217.829 46.2776 217.829 43.875 217.188C43.2563 217.126 42.6375 217.064 42 217C42 216.01 42 215.02 42 214Z" fill="#D14933"/>
<path d="M214 82C213.67 82.66 213.34 83.32 213 84C212.216 83.7937 211.433 83.5875 210.625 83.375C209.759 83.2512 208.892 83.1275 208 83C207.34 83.66 206.68 84.32 206 85C205.01 85 204.02 85 203 85C203 84.34 203 83.68 203 83C202.01 82.67 201.02 82.34 200 82C204.793 80.6085 209.151 81.3134 214 82Z" fill="#FE9E0C"/>
<path d="M219 264C219.33 264.66 219.66 265.32 220 266C219.67 266.66 219.34 267.32 219 268C219.99 268 220.98 268 222 268C221.67 269.65 221.34 271.3 221 273C219.68 273.33 218.36 273.66 217 274C217.14 272.52 217.288 271.041 217.438 269.562C217.519 268.739 217.6 267.915 217.684 267.066C218 265 218 265 219 264Z" fill="#FE6104"/>
<path d="M249 252C249.66 252.33 250.32 252.66 251 253C247.279 256.914 243.86 260.497 239 263C240.448 259.556 242.277 257.639 245.125 255.25C245.849 254.636 246.574 254.023 247.32 253.391C248.152 252.702 248.152 252.702 249 252Z" fill="#F08829"/>
<path d="M38 240C38.66 240 39.32 240 40 240C40.2269 240.722 40.4538 241.444 40.6875 242.188C42.2483 245.532 44.3031 247.516 47 250C43.899 249.655 42.2006 249.152 39.6875 247.25C37.6907 244.588 37.6388 243.25 38 240Z" fill="#D94936"/>
<path d="M77 175C79.6061 177.516 81.8938 180.051 84 183C83.67 183.66 83.34 184.32 83 185C81.125 184.812 81.125 184.812 79 184C77.2172 180.702 77 178.823 77 175Z" fill="#FF7D26"/>
<path d="M142 133C144.971 135.546 146.478 138.422 148 142C147.67 142.66 147.34 143.32 147 144C146.01 143.67 145.02 143.34 144 143C144 141.68 144 140.36 144 139C143.34 139 142.68 139 142 139C142 137.02 142 135.04 142 133Z" fill="#EE6C21"/>
<path d="M140 30C140.804 30.3094 141.609 30.6188 142.438 30.9375C146.622 32.1857 150.663 32.6338 155 33C155 33.33 155 33.66 155 34C150.05 34 145.1 34 140 34C140 32.68 140 31.36 140 30Z" fill="#3CB553"/>
<path d="M217 302C217.99 302 218.98 302 220 302C221.605 303.75 221.605 303.75 223.188 306C223.717 306.743 224.247 307.485 224.793 308.25C225.191 308.827 225.59 309.405 226 310C222.132 309.19 219.897 307.736 217 305C217 304.01 217 303.02 217 302Z" fill="#C24D26"/>
<path d="M109 285C110.32 285 111.64 285 113 285C112.453 288.375 111.945 290.082 110 293C110 291.68 110 290.36 110 289C109.01 289 108.02 289 107 289C107.66 287.68 108.32 286.36 109 285Z" fill="#D13C1F"/>
<path d="M38 219C38 219.99 38 220.98 38 222C35.03 222 32.06 222 29 222C29 221.34 29 220.68 29 220C31.9566 218.522 34.7423 218.94 38 219Z" fill="#DA4C28"/>
<path d="M111 208C119.571 209.857 119.571 209.857 123 213C114.429 212 114.429 212 111 211C111 210.01 111 209.02 111 208Z" fill="#F43B07"/>
<path d="M87 185C89.4375 186.062 89.4375 186.062 92 188C92.8125 191.688 92.8125 191.688 93 195C89.992 192.995 88.2799 191.413 87 188C87 187.01 87 186.02 87 185Z" fill="#FC7314"/>
<path d="M208 155C212.495 156.254 215.591 157.786 219 161C219.33 161.99 219.66 162.98 220 164C219.01 164.495 219.01 164.495 218 165C214.667 161.667 211.333 158.333 208 155Z" fill="#EA7127"/>
<path d="M274 142C275.868 144.802 276.727 146.88 277.688 150.062C277.96 150.94 278.231 151.818 278.512 152.723C279 155 279 155 278 157C277.322 155.442 276.658 153.878 276 152.312C275.629 151.442 275.258 150.572 274.875 149.676C273.981 146.943 273.836 144.853 274 142Z" fill="#F8B63B"/>
<path d="M229 173C230.132 173.908 231.255 174.827 232.375 175.75C233.001 176.26 233.628 176.771 234.273 177.297C236.083 179.082 237.001 180.679 238 183C236.35 182.67 234.7 182.34 233 182C232.897 181.402 232.794 180.804 232.688 180.188C231.906 177.701 230.851 176.771 229 175C229 174.34 229 173.68 229 173Z" fill="#F73800"/>
<path d="M30 164C30 164.99 30 165.98 30 167C28.8656 167.124 27.7313 167.248 26.5625 167.375C24.7991 167.684 24.7991 167.684 23 168C22.67 168.66 22.34 169.32 22 170C22 169.34 22 168.68 22 168C21.34 167.67 20.68 167.34 20 167C23.3185 163.937 25.5515 163.697 30 164Z" fill="#E0846B"/>
<path d="M55 250C50.9263 252.037 48.4106 252.026 44 251C48.316 248.123 50.4389 247.231 55 250Z" fill="#D46E60"/>
<path d="M121 211C126.75 211.875 126.75 211.875 129 213C129 213.66 129 214.32 129 215C126.69 215 124.38 215 122 215C121.67 213.68 121.34 212.36 121 211Z" fill="#FD7819"/>
<path d="M62 160C68.625 159.75 68.625 159.75 72 162C71.67 162.66 71.34 163.32 71 164C70.0719 163.629 69.1438 163.257 68.1875 162.875C67.1356 162.586 66.0838 162.298 65 162C64.01 162.66 63.02 163.32 62 164C62 162.68 62 161.36 62 160Z" fill="#F86C03"/>
<path d="M83 279C83.66 279.99 84.32 280.98 85 282C82.6875 284.5 82.6875 284.5 80 287C79.01 287 78.02 287 77 287C77 285 77 285 79.4375 282.438C80.2831 281.633 81.1288 280.829 82 280C82.33 279.67 82.66 279.34 83 279Z" fill="#C74D3C"/>
<path d="M85 266C85 266.66 85 267.32 85 268C83.25 269.508 83.25 269.508 81 271.125C80.2575 271.664 79.515 272.203 78.75 272.758C78.1725 273.168 77.595 273.578 77 274C77.9679 269.299 79.8415 266 85 266Z" fill="#A8463C"/>
<path d="M213 54C215 55.8125 215 55.8125 217 58C217 58.99 217 59.98 217 61C214.116 59.707 212.128 58.3406 210 56C210.99 56 211.98 56 213 56C213 55.34 213 54.68 213 54Z" fill="#478C4F"/>
<path d="M131 40C133.31 40.33 135.62 40.66 138 41C138 41.66 138 42.32 138 43C140.475 43.99 140.475 43.99 143 45C142.01 45.495 142.01 45.495 141 46C138.617 45.0039 138.617 45.0039 135.875 43.5625C134.965 43.0894 134.055 42.6163 133.117 42.1289C132.419 41.7564 131.72 41.3838 131 41C131 40.67 131 40.34 131 40Z" fill="#36934C"/>
<path d="M210 300C210.33 300 210.66 300 211 300C211 302.97 211 305.94 211 309C211.99 309.33 212.98 309.66 214 310C212.68 311.32 211.36 312.64 210 314C210 309.38 210 304.76 210 300Z" fill="#CE6650"/>
<path d="M194 188C195.32 188.33 196.64 188.66 198 189C198.33 190.32 198.66 191.64 199 193C197.35 193 195.7 193 194 193C194 191.35 194 189.7 194 188Z" fill="#FF6004"/>
<path d="M37 174C37.33 174 37.66 174 38 174C38.125 176.375 38.125 176.375 38 179C37.34 179.66 36.68 180.32 36 181C35.01 181 34.02 181 33 181C34.074 178.085 34.7781 176.222 37 174Z" fill="#D85335"/>
<path d="M166 111C167.746 113.619 168.387 115.038 169 118C169.99 117.67 170.98 117.34 172 117C171.67 118.32 171.34 119.64 171 121C168 120 168 120 166.812 118.25C165.892 115.7 165.85 113.691 166 111Z" fill="#F7630F"/>
<path d="M315 72C320.75 73.75 320.75 73.75 323 76C320.688 76.6875 320.688 76.6875 318 77C316.188 75.6875 316.188 75.6875 315 74C315 73.34 315 72.68 315 72Z" fill="#1E8522"/>
<path d="M236 41C236.33 41 236.66 41 237 41C236.588 45.9709 236.204 50.4451 234 55C233.67 55 233.34 55 233 55C233 52.69 233 50.38 233 48C233.66 48 234.32 48 235 48C235.33 45.69 235.66 43.38 236 41Z" fill="#613919"/>
<path d="M126 306C126.268 306.619 126.536 307.238 126.812 307.875C127.956 310.3 127.956 310.3 131 312C131.33 311.34 131.66 310.68 132 310C132.99 311.32 133.98 312.64 135 314C128.25 313.25 128.25 313.25 126 311C125.875 308.375 125.875 308.375 126 306Z" fill="#DA7758"/>
<path d="M25 165C26.2581 164.959 27.5163 164.918 28.8125 164.875C29.5202 164.852 30.2279 164.829 30.957 164.805C33 165 33 165 36 167C36 167.66 36 168.32 36 169C32.301 168.112 28.6545 167.054 25 166C25 165.67 25 165.34 25 165Z" fill="#DB4E32"/>
<path d="M143 142C144.32 142.33 145.64 142.66 147 143C147.33 144.32 147.66 145.64 148 147C146.68 147.33 145.36 147.66 144 148C143.67 146.02 143.34 144.04 143 142Z" fill="#F64E03"/>
<path d="M246 79C247.98 79 249.96 79 252 79C252 79.99 252 80.98 252 82C249.69 82 247.38 82 245 82C245.33 81.01 245.66 80.02 246 79Z" fill="#008904"/>
<path d="M295 71C297.64 71.33 300.28 71.66 303 72C303.33 73.32 303.66 74.64 304 76C302.68 75.67 301.36 75.34 300 75C300 74.34 300 73.68 300 73C298.35 73 296.7 73 295 73C295 72.34 295 71.68 295 71Z" fill="#B6E4AE"/>
<path d="M191 32C195.75 32.875 195.75 32.875 198 34C198 34.66 198 35.32 198 36C198.66 36.33 199.32 36.66 200 37C199.01 37.495 199.01 37.495 198 38C196.831 37.1915 195.664 36.3781 194.5 35.5625C193.85 35.11 193.201 34.6576 192.531 34.1914C192.026 33.7982 191.521 33.4051 191 33C191 32.67 191 32.34 191 32Z" fill="#D3EED6"/>
<path d="M118 28C118.66 29.98 119.32 31.96 120 34C117.562 33.1875 117.562 33.1875 115 32C114.67 31.01 114.34 30.02 114 29C116 28 116 28 118 28Z" fill="#3E8E48"/>
<path d="M164 313C164.99 313.33 165.98 313.66 167 314C167 314.99 167 315.98 167 317C169.31 317.33 171.62 317.66 174 318C174 318.33 174 318.66 174 319C167.945 319.195 167.945 319.195 166 319C165.34 318.34 164.68 317.68 164 317C164 315.68 164 314.36 164 313Z" fill="#E59A8D"/>
<path d="M210 214C212.438 214.688 212.438 214.688 215 216C215.812 218.625 215.812 218.625 216 221C212.588 219.863 211.881 218.957 210 216C210 215.34 210 214.68 210 214Z" fill="#F8680F"/>
<path d="M224 174C224.99 174 225.98 174 227 174C227 175.32 227 176.64 227 178C227.99 178 228.98 178 230 178C229.67 179.32 229.34 180.64 229 182C226.276 179.647 225.186 177.375 224 174Z" fill="#EF2919"/>
<path d="M205 61C206.938 61.8125 206.938 61.8125 209 63C209.33 63.99 209.66 64.98 210 66C208.68 66 207.36 66 206 66C206 65.34 206 64.68 206 64C205.34 64 204.68 64 204 64C204.33 63.01 204.66 62.02 205 61Z" fill="#286C2A"/>
<path d="M229 56C230.98 56.495 230.98 56.495 233 57C231.625 59.5 231.625 59.5 230 62C229.34 62 228.68 62 228 62C228.33 60.02 228.66 58.04 229 56Z" fill="#623F19"/>
<path d="M145 307C146 310 146 310 145.062 312.188C144.537 313.085 144.537 313.085 144 314C143.01 314 142.02 314 141 314C142.204 311.506 143.454 309.319 145 307Z" fill="#CB4F39"/>
<path d="M149 304C149.99 304 150.98 304 152 304C152 305.65 152 307.3 152 309C150.68 308.67 149.36 308.34 148 308C148.33 306.68 148.66 305.36 149 304Z" fill="#F6DCCB"/>
<path d="M212 300C213.32 300.33 214.64 300.66 216 301C216 302.32 216 303.64 216 305C214.68 304.67 213.36 304.34 212 304C212 302.68 212 301.36 212 300Z" fill="#FEEACE"/>
<path d="M256 244C256.66 244.33 257.32 244.66 258 245C256.384 247.041 254.714 249.041 253 251C252.34 251 251.68 251 251 251C252.293 248.116 253.659 246.128 256 244Z" fill="#EF7E22"/>
<path d="M270 221C270.66 221 271.32 221 272 221C271.497 225.401 269.912 227.712 267 231C267.507 227.281 268.116 224.265 270 221Z" fill="#F39426"/>
<path d="M70 226C70.66 226 71.32 226 72 226C72.33 227.32 72.66 228.64 73 230C73.66 230 74.32 230 75 230C75.33 231.65 75.66 233.3 76 235C72.9191 232.227 71.3122 229.937 70 226Z" fill="#E98016"/>
<path d="M95 190C97.6475 192.578 99.9443 194.916 102 198C100.68 198 99.36 198 98 198C95 192.25 95 192.25 95 190Z" fill="#EA691E"/>
<path d="M154 158C155.98 158.495 155.98 158.495 158 159C158.33 160.65 158.66 162.3 159 164C156 163 156 163 154 161C154 160.01 154 159.02 154 158Z" fill="#F24208"/>
<path d="M188 312C189.65 313.65 191.3 315.3 193 317C190.625 316.688 190.625 316.688 188 316C187.34 315.01 186.68 314.02 186 313C186.66 312.67 187.32 312.34 188 312Z" fill="#D74F27"/>
<path d="M52 233C56.6769 234.477 56.6769 234.477 58.3125 237.125C58.5394 237.744 58.7662 238.363 59 239C56.5064 237.796 54.3186 236.546 52 235C52 234.34 52 233.68 52 233Z" fill="#BB3429"/>
<path d="M162.562 219.938C163.769 219.968 163.769 219.968 165 220C165.33 221.32 165.66 222.64 166 224C163.496 223.165 161.332 222.206 159 221C160 220 160 220 162.562 219.938Z" fill="#FD5D03"/>
<path d="M148 185C149.625 187 149.625 187 151 189C148.36 188.67 145.72 188.34 143 188C143 187.34 143 186.68 143 186C146 185 146 185 148 185Z" fill="#FA7B28"/>
<path d="M90 183C91.65 184.65 93.3 186.3 95 188C94.67 188.66 94.34 189.32 94 190C93.34 190 92.68 190 92 190C92 189.34 92 188.68 92 188C91.34 188 90.68 188 90 188C90 186.35 90 184.7 90 183Z" fill="#EC6C22"/>
<path d="M173 175C175.875 174.812 175.875 174.812 179 175C179.66 175.99 180.32 176.98 181 178C179.68 178.33 178.36 178.66 177 179C176.67 178.34 176.34 177.68 176 177C175.01 176.34 174.02 175.68 173 175Z" fill="#FA4F02"/>
<path d="M199 149C202.775 150.091 205.47 150.908 208 154C203.985 154 202.18 152.332 199 150C199 149.67 199 149.34 199 149Z" fill="#EA732E"/>
<path d="M176 26C178.97 26.99 181.94 27.98 185 29C185 29.33 185 29.66 185 30C183.02 30 181.04 30 179 30C179 29.34 179 28.68 179 28C178.01 28 177.02 28 176 28C176 27.34 176 26.68 176 26Z" fill="#13791D"/>
</g>
<defs>
<clipPath id="clip0_4_2">
<rect width="336" height="336" fill="white"/>
</clipPath>
</defs>
</svg>
